<mxfile host="app.diagrams.net" agent="Mozilla/5.0 (Windows NT 10.0; Win64; x64) AppleWebKit/537.36 (KHTML, like Gecko) Chrome/137.0.0.0 Safari/537.36 Edg/137.0.0.0" version="27.1.6">
  <diagram name="Page-1" id="cyQkHr0QkXfXZlUE6OAU">
    <mxGraphModel grid="0" page="1" gridSize="10" guides="1" tooltips="1" connect="1" arrows="1" fold="1" pageScale="1" pageWidth="850" pageHeight="1100" background="#FFFFFF" math="0" shadow="0">
      <root>
        <mxCell id="0" />
        <mxCell id="1" parent="0" />
        <mxCell id="w7FsaGLrVxEDbODlspXQ-18" value="User_Person" style="swimlane;fontStyle=1;childLayout=stackLayout;horizontal=1;startSize=20;fillColor=#B7272A;horizontalStack=0;resizeParent=1;resizeParentMax=0;resizeLast=0;collapsible=0;marginBottom=0;swimlaneFillColor=#ffffff;fontSize=14;fontColor=#FFFFFF;" vertex="1" parent="1">
          <mxGeometry x="730" y="-471" width="180" height="20" as="geometry" />
        </mxCell>
        <mxCell id="w7FsaGLrVxEDbODlspXQ-20" value="&lt;b&gt;&lt;font style=&quot;font-size: 14px;&quot;&gt;P_ID&lt;/font&gt;&lt;/b&gt;" style="rounded=0;whiteSpace=wrap;html=1;fillColor=#FFCCCC;" vertex="1" parent="1">
          <mxGeometry x="730" y="-451" width="90" height="30" as="geometry" />
        </mxCell>
        <mxCell id="w7FsaGLrVxEDbODlspXQ-21" value="&lt;font style=&quot;font-size: 14px;&quot;&gt;&lt;b&gt;Account_ID&lt;/b&gt;&lt;/font&gt;" style="rounded=0;whiteSpace=wrap;html=1;fillColor=#FFCCCC;" vertex="1" parent="1">
          <mxGeometry x="820" y="-451" width="90" height="30" as="geometry" />
        </mxCell>
        <mxCell id="w7FsaGLrVxEDbODlspXQ-22" value="&lt;b&gt;&lt;font style=&quot;font-size: 14px;&quot;&gt;Account_ID&lt;/font&gt;&lt;/b&gt;" style="rounded=0;whiteSpace=wrap;html=1;" vertex="1" parent="1">
          <mxGeometry x="70" y="-451" width="90" height="30" as="geometry" />
        </mxCell>
        <mxCell id="w7FsaGLrVxEDbODlspXQ-25" value="&lt;b&gt;&lt;font style=&quot;font-size: 14px;&quot;&gt;Role&lt;/font&gt;&lt;/b&gt;" style="rounded=0;whiteSpace=wrap;html=1;" vertex="1" parent="1">
          <mxGeometry x="160" y="-451" width="90" height="30" as="geometry" />
        </mxCell>
        <mxCell id="w7FsaGLrVxEDbODlspXQ-26" value="&lt;b&gt;&lt;font style=&quot;font-size: 14px;&quot;&gt;UserName&lt;/font&gt;&lt;/b&gt;" style="rounded=0;whiteSpace=wrap;html=1;" vertex="1" parent="1">
          <mxGeometry x="250" y="-451" width="90" height="30" as="geometry" />
        </mxCell>
        <mxCell id="w7FsaGLrVxEDbODlspXQ-27" value="&lt;b&gt;&lt;font style=&quot;font-size: 14px;&quot;&gt;Hashed_Pass&lt;/font&gt;&lt;/b&gt;" style="rounded=0;whiteSpace=wrap;html=1;" vertex="1" parent="1">
          <mxGeometry x="340" y="-451" width="110" height="30" as="geometry" />
        </mxCell>
        <mxCell id="w7FsaGLrVxEDbODlspXQ-30" value="User" style="swimlane;fontStyle=1;childLayout=stackLayout;horizontal=1;startSize=20;fillColor=#B7272A;horizontalStack=0;resizeParent=1;resizeParentMax=0;resizeLast=0;collapsible=0;marginBottom=0;swimlaneFillColor=#ffffff;fontSize=14;fontColor=#FFFFFF;" vertex="1" parent="1">
          <mxGeometry x="70" y="-471" width="90" height="20" as="geometry" />
        </mxCell>
        <mxCell id="w7FsaGLrVxEDbODlspXQ-32" value="" style="endArrow=none;html=1;rounded=0;entryX=0.75;entryY=1;entryDx=0;entryDy=0;exitX=0.25;exitY=1;exitDx=0;exitDy=0;fontColor=#FFFFFF;" edge="1" parent="1">
          <mxGeometry width="50" height="50" relative="1" as="geometry">
            <mxPoint x="752.5" y="-424" as="sourcePoint" />
            <mxPoint x="887.5" y="-424" as="targetPoint" />
          </mxGeometry>
        </mxCell>
        <mxCell id="w7FsaGLrVxEDbODlspXQ-33" value="" style="endArrow=none;html=1;rounded=0;" edge="1" parent="1">
          <mxGeometry width="50" height="50" relative="1" as="geometry">
            <mxPoint x="745" y="-426" as="sourcePoint" />
            <mxPoint x="805" y="-426" as="targetPoint" />
          </mxGeometry>
        </mxCell>
        <mxCell id="w7FsaGLrVxEDbODlspXQ-35" value="" style="endArrow=none;dashed=1;html=1;rounded=0;" edge="1" parent="1">
          <mxGeometry width="50" height="50" relative="1" as="geometry">
            <mxPoint x="830" y="-426" as="sourcePoint" />
            <mxPoint x="895" y="-426" as="targetPoint" />
          </mxGeometry>
        </mxCell>
        <mxCell id="w7FsaGLrVxEDbODlspXQ-36" value="" style="endArrow=none;html=1;rounded=0;" edge="1" parent="1">
          <mxGeometry width="50" height="50" relative="1" as="geometry">
            <mxPoint x="90" y="-426" as="sourcePoint" />
            <mxPoint x="150" y="-426" as="targetPoint" />
          </mxGeometry>
        </mxCell>
        <mxCell id="w7FsaGLrVxEDbODlspXQ-39" value="" style="shape=partialRectangle;whiteSpace=wrap;html=1;bottom=1;right=1;left=1;top=0;fillColor=none;routingCenterX=-0.5;direction=west;" vertex="1" parent="1">
          <mxGeometry x="110" y="-481" width="750" height="10" as="geometry" />
        </mxCell>
        <mxCell id="w7FsaGLrVxEDbODlspXQ-40" value="" style="endArrow=classic;html=1;rounded=0;" edge="1" parent="1">
          <mxGeometry width="50" height="50" relative="1" as="geometry">
            <mxPoint x="110" y="-481" as="sourcePoint" />
            <mxPoint x="110" y="-471" as="targetPoint" />
          </mxGeometry>
        </mxCell>
        <mxCell id="w7FsaGLrVxEDbODlspXQ-41" value="&lt;b&gt;&lt;font style=&quot;font-size: 14px;&quot;&gt;P_ID&lt;/font&gt;&lt;/b&gt;" style="rounded=0;whiteSpace=wrap;html=1;" vertex="1" parent="1">
          <mxGeometry x="70" y="-351" width="90" height="30" as="geometry" />
        </mxCell>
        <mxCell id="w7FsaGLrVxEDbODlspXQ-42" value="Person" style="swimlane;fontStyle=1;childLayout=stackLayout;horizontal=1;startSize=20;fillColor=#B7272A;horizontalStack=0;resizeParent=1;resizeParentMax=0;resizeLast=0;collapsible=0;marginBottom=0;swimlaneFillColor=#ffffff;fontSize=14;fontColor=#FFFFFF;" vertex="1" parent="1">
          <mxGeometry x="70" y="-371" width="90" height="20" as="geometry" />
        </mxCell>
        <mxCell id="w7FsaGLrVxEDbODlspXQ-43" value="&lt;b&gt;&lt;font style=&quot;font-size: 14px;&quot;&gt;SSN&lt;/font&gt;&lt;/b&gt;" style="rounded=0;whiteSpace=wrap;html=1;" vertex="1" parent="1">
          <mxGeometry x="160" y="-351" width="90" height="30" as="geometry" />
        </mxCell>
        <mxCell id="w7FsaGLrVxEDbODlspXQ-44" value="&lt;b&gt;&lt;font style=&quot;font-size: 14px;&quot;&gt;FName&lt;/font&gt;&lt;/b&gt;" style="rounded=0;whiteSpace=wrap;html=1;" vertex="1" parent="1">
          <mxGeometry x="250" y="-351" width="90" height="30" as="geometry" />
        </mxCell>
        <mxCell id="w7FsaGLrVxEDbODlspXQ-45" value="&lt;b&gt;&lt;font style=&quot;font-size: 14px;&quot;&gt;LName&lt;/font&gt;&lt;/b&gt;" style="rounded=0;whiteSpace=wrap;html=1;" vertex="1" parent="1">
          <mxGeometry x="340" y="-351" width="90" height="30" as="geometry" />
        </mxCell>
        <mxCell id="w7FsaGLrVxEDbODlspXQ-46" value="&lt;b&gt;&lt;font style=&quot;font-size: 14px;&quot;&gt;Email&lt;/font&gt;&lt;/b&gt;" style="rounded=0;whiteSpace=wrap;html=1;" vertex="1" parent="1">
          <mxGeometry x="430" y="-351" width="90" height="30" as="geometry" />
        </mxCell>
        <mxCell id="w7FsaGLrVxEDbODlspXQ-47" value="&lt;b&gt;&lt;font style=&quot;font-size: 14px;&quot;&gt;DOB&lt;/font&gt;&lt;/b&gt;" style="rounded=0;whiteSpace=wrap;html=1;" vertex="1" parent="1">
          <mxGeometry x="520" y="-351" width="90" height="30" as="geometry" />
        </mxCell>
        <mxCell id="w7FsaGLrVxEDbODlspXQ-48" value="&lt;b&gt;&lt;font style=&quot;font-size: 14px;&quot;&gt;Street&lt;/font&gt;&lt;/b&gt;" style="rounded=0;whiteSpace=wrap;html=1;" vertex="1" parent="1">
          <mxGeometry x="610" y="-351" width="90" height="30" as="geometry" />
        </mxCell>
        <mxCell id="w7FsaGLrVxEDbODlspXQ-49" value="&lt;b&gt;&lt;font style=&quot;font-size: 14px;&quot;&gt;City&lt;/font&gt;&lt;/b&gt;" style="rounded=0;whiteSpace=wrap;html=1;" vertex="1" parent="1">
          <mxGeometry x="700" y="-351" width="90" height="30" as="geometry" />
        </mxCell>
        <mxCell id="w7FsaGLrVxEDbODlspXQ-50" value="&lt;b&gt;&lt;font style=&quot;font-size: 14px;&quot;&gt;Gender&lt;/font&gt;&lt;/b&gt;" style="rounded=0;whiteSpace=wrap;html=1;" vertex="1" parent="1">
          <mxGeometry x="790" y="-351" width="90" height="30" as="geometry" />
        </mxCell>
        <mxCell id="w7FsaGLrVxEDbODlspXQ-51" value="&lt;b&gt;&lt;font style=&quot;font-size: 14px;&quot;&gt;Marital_Status&lt;/font&gt;&lt;/b&gt;" style="rounded=0;whiteSpace=wrap;html=1;" vertex="1" parent="1">
          <mxGeometry x="880" y="-351" width="110" height="30" as="geometry" />
        </mxCell>
        <mxCell id="w7FsaGLrVxEDbODlspXQ-52" value="" style="endArrow=none;html=1;rounded=0;" edge="1" parent="1">
          <mxGeometry width="50" height="50" relative="1" as="geometry">
            <mxPoint x="85" y="-326" as="sourcePoint" />
            <mxPoint x="145" y="-326" as="targetPoint" />
          </mxGeometry>
        </mxCell>
        <mxCell id="w7FsaGLrVxEDbODlspXQ-53" value="" style="edgeStyle=elbowEdgeStyle;elbow=vertical;endArrow=classic;html=1;curved=0;rounded=0;endSize=8;startSize=8;entryX=0.5;entryY=0;entryDx=0;entryDy=0;" edge="1" parent="1" target="w7FsaGLrVxEDbODlspXQ-42">
          <mxGeometry width="50" height="50" relative="1" as="geometry">
            <mxPoint x="770" y="-421" as="sourcePoint" />
            <mxPoint x="470" y="-381" as="targetPoint" />
            <Array as="points">
              <mxPoint x="510" y="-391" />
            </Array>
          </mxGeometry>
        </mxCell>
        <mxCell id="w7FsaGLrVxEDbODlspXQ-54" value="Std_Phone" style="swimlane;fontStyle=1;childLayout=stackLayout;horizontal=1;startSize=20;fillColor=#B7272A;horizontalStack=0;resizeParent=1;resizeParentMax=0;resizeLast=0;collapsible=0;marginBottom=0;swimlaneFillColor=#ffffff;fontSize=14;fontColor=#FFFFFF;" vertex="1" parent="1">
          <mxGeometry x="745" y="-287" width="180" height="20" as="geometry" />
        </mxCell>
        <mxCell id="w7FsaGLrVxEDbODlspXQ-55" value="&lt;b&gt;&lt;font style=&quot;font-size: 14px;&quot;&gt;P_ID&lt;/font&gt;&lt;/b&gt;" style="rounded=0;whiteSpace=wrap;html=1;fillColor=#FFCCCC;" vertex="1" parent="1">
          <mxGeometry x="745" y="-267" width="90" height="30" as="geometry" />
        </mxCell>
        <mxCell id="w7FsaGLrVxEDbODlspXQ-56" value="&lt;font style=&quot;font-size: 14px;&quot;&gt;&lt;b&gt;Phone&lt;/b&gt;&lt;/font&gt;" style="rounded=0;whiteSpace=wrap;html=1;fillColor=#FFCCCC;" vertex="1" parent="1">
          <mxGeometry x="835" y="-267" width="90" height="30" as="geometry" />
        </mxCell>
        <mxCell id="w7FsaGLrVxEDbODlspXQ-58" value="" style="endArrow=none;dashed=1;html=1;rounded=0;" edge="1" parent="1">
          <mxGeometry width="50" height="50" relative="1" as="geometry">
            <mxPoint x="757.5" y="-243" as="sourcePoint" />
            <mxPoint x="822.5" y="-243" as="targetPoint" />
          </mxGeometry>
        </mxCell>
        <mxCell id="w7FsaGLrVxEDbODlspXQ-59" value="" style="endArrow=none;html=1;rounded=0;entryX=0.75;entryY=1;entryDx=0;entryDy=0;exitX=0.133;exitY=0.893;exitDx=0;exitDy=0;fontColor=#FFFFFF;exitPerimeter=0;" edge="1" parent="1" source="w7FsaGLrVxEDbODlspXQ-55">
          <mxGeometry width="50" height="50" relative="1" as="geometry">
            <mxPoint x="775" y="-240" as="sourcePoint" />
            <mxPoint x="910" y="-240" as="targetPoint" />
          </mxGeometry>
        </mxCell>
        <mxCell id="w7FsaGLrVxEDbODlspXQ-60" value="" style="edgeStyle=elbowEdgeStyle;elbow=vertical;endArrow=classic;html=1;curved=0;rounded=0;endSize=8;startSize=8;" edge="1" parent="1">
          <mxGeometry width="50" height="50" relative="1" as="geometry">
            <mxPoint x="745" y="-267" as="sourcePoint" />
            <mxPoint x="120" y="-320" as="targetPoint" />
            <Array as="points">
              <mxPoint x="485" y="-267" />
            </Array>
          </mxGeometry>
        </mxCell>
        <mxCell id="w7FsaGLrVxEDbODlspXQ-61" value="&lt;b&gt;&lt;font style=&quot;font-size: 14px;&quot;&gt;Mng_ID&lt;/font&gt;&lt;/b&gt;" style="rounded=0;whiteSpace=wrap;html=1;" vertex="1" parent="1">
          <mxGeometry x="80" y="-240" width="90" height="30" as="geometry" />
        </mxCell>
        <mxCell id="w7FsaGLrVxEDbODlspXQ-62" value="&lt;b&gt;&lt;font style=&quot;font-size: 14px;&quot;&gt;Hiring_Date&lt;/font&gt;&lt;/b&gt;" style="rounded=0;whiteSpace=wrap;html=1;" vertex="1" parent="1">
          <mxGeometry x="170" y="-240" width="90" height="30" as="geometry" />
        </mxCell>
        <mxCell id="w7FsaGLrVxEDbODlspXQ-63" value="&lt;b&gt;&lt;font style=&quot;font-size: 14px;&quot;&gt;Salary&lt;/font&gt;&lt;/b&gt;" style="rounded=0;whiteSpace=wrap;html=1;" vertex="1" parent="1">
          <mxGeometry x="260" y="-240" width="90" height="30" as="geometry" />
        </mxCell>
        <mxCell id="w7FsaGLrVxEDbODlspXQ-65" value="Manager" style="swimlane;fontStyle=1;childLayout=stackLayout;horizontal=1;startSize=20;fillColor=#B7272A;horizontalStack=0;resizeParent=1;resizeParentMax=0;resizeLast=0;collapsible=0;marginBottom=0;swimlaneFillColor=#ffffff;fontSize=14;fontColor=#FFFFFF;" vertex="1" parent="1">
          <mxGeometry x="80" y="-260" width="90" height="20" as="geometry" />
        </mxCell>
        <mxCell id="BKir_ti3wIF976m73uB4-1" value="" style="edgeStyle=elbowEdgeStyle;elbow=vertical;endArrow=classic;html=1;curved=0;rounded=0;endSize=8;startSize=8;exitX=0.25;exitY=0;exitDx=0;exitDy=0;" edge="1" parent="1">
          <mxGeometry width="50" height="50" relative="1" as="geometry">
            <mxPoint x="82" y="-261" as="sourcePoint" />
            <mxPoint x="82.5" y="-321" as="targetPoint" />
            <Array as="points">
              <mxPoint x="69.5" y="-291" />
              <mxPoint x="49.5" y="-221" />
              <mxPoint x="448.66" y="-68.01" />
            </Array>
          </mxGeometry>
        </mxCell>
        <mxCell id="BKir_ti3wIF976m73uB4-2" value="&lt;b&gt;&lt;font style=&quot;font-size: 14px;&quot;&gt;Std_ID&lt;/font&gt;&lt;/b&gt;" style="rounded=0;whiteSpace=wrap;html=1;" vertex="1" parent="1">
          <mxGeometry x="80" y="-170" width="90" height="30" as="geometry" />
        </mxCell>
        <mxCell id="BKir_ti3wIF976m73uB4-4" value="&lt;b&gt;&lt;font style=&quot;font-size: 14px;&quot;&gt;SM_URL&lt;/font&gt;&lt;/b&gt;" style="rounded=0;whiteSpace=wrap;html=1;" vertex="1" parent="1">
          <mxGeometry x="280" y="-170" width="90" height="30" as="geometry" />
        </mxCell>
        <mxCell id="BKir_ti3wIF976m73uB4-5" value="Student" style="swimlane;fontStyle=1;childLayout=stackLayout;horizontal=1;startSize=20;fillColor=#B7272A;horizontalStack=0;resizeParent=1;resizeParentMax=0;resizeLast=0;collapsible=0;marginBottom=0;swimlaneFillColor=#ffffff;fontSize=14;fontColor=#FFFFFF;" vertex="1" parent="1">
          <mxGeometry x="80" y="-190" width="90" height="20" as="geometry" />
        </mxCell>
        <mxCell id="BKir_ti3wIF976m73uB4-6" value="&lt;b&gt;&lt;font style=&quot;font-size: 14px;&quot;&gt;Track_ID&lt;/font&gt;&lt;/b&gt;" style="rounded=0;whiteSpace=wrap;html=1;fillColor=#E6E6E6;" vertex="1" parent="1">
          <mxGeometry x="370" y="-170" width="90" height="30" as="geometry" />
        </mxCell>
        <mxCell id="BKir_ti3wIF976m73uB4-7" value="&lt;b&gt;&lt;font style=&quot;font-size: 14px;&quot;&gt;Intake_ID&lt;/font&gt;&lt;/b&gt;" style="rounded=0;whiteSpace=wrap;html=1;fillColor=#E6E6E6;" vertex="1" parent="1">
          <mxGeometry x="460" y="-170" width="90" height="30" as="geometry" />
        </mxCell>
        <mxCell id="BKir_ti3wIF976m73uB4-8" value="&lt;b&gt;&lt;font style=&quot;font-size: 14px;&quot;&gt;Branch_ID&lt;/font&gt;&lt;/b&gt;" style="rounded=0;whiteSpace=wrap;html=1;fillColor=#E6E6E6;" vertex="1" parent="1">
          <mxGeometry x="550" y="-170" width="90" height="30" as="geometry" />
        </mxCell>
        <mxCell id="BKir_ti3wIF976m73uB4-9" value="&lt;b&gt;&lt;font style=&quot;font-size: 14px;&quot;&gt;Marital_Status&lt;/font&gt;&lt;/b&gt;" style="rounded=0;whiteSpace=wrap;html=1;" vertex="1" parent="1">
          <mxGeometry x="170" y="-170" width="110" height="30" as="geometry" />
        </mxCell>
        <mxCell id="BKir_ti3wIF976m73uB4-10" value="" style="endArrow=none;dashed=1;html=1;rounded=0;" edge="1" parent="1">
          <mxGeometry width="50" height="50" relative="1" as="geometry">
            <mxPoint x="385" y="-145" as="sourcePoint" />
            <mxPoint x="450" y="-145" as="targetPoint" />
          </mxGeometry>
        </mxCell>
        <mxCell id="BKir_ti3wIF976m73uB4-11" value="" style="endArrow=none;dashed=1;html=1;rounded=0;" edge="1" parent="1">
          <mxGeometry width="50" height="50" relative="1" as="geometry">
            <mxPoint x="472.5" y="-145" as="sourcePoint" />
            <mxPoint x="537.5" y="-145" as="targetPoint" />
          </mxGeometry>
        </mxCell>
        <mxCell id="BKir_ti3wIF976m73uB4-12" value="" style="endArrow=none;dashed=1;html=1;rounded=0;" edge="1" parent="1">
          <mxGeometry width="50" height="50" relative="1" as="geometry">
            <mxPoint x="562.5" y="-145" as="sourcePoint" />
            <mxPoint x="627.5" y="-145" as="targetPoint" />
          </mxGeometry>
        </mxCell>
        <mxCell id="BKir_ti3wIF976m73uB4-13" value="&lt;b&gt;&lt;font style=&quot;font-size: 14px;&quot;&gt;Ins_ID&lt;/font&gt;&lt;/b&gt;" style="rounded=0;whiteSpace=wrap;html=1;" vertex="1" parent="1">
          <mxGeometry x="81" y="-96" width="90" height="30" as="geometry" />
        </mxCell>
        <mxCell id="BKir_ti3wIF976m73uB4-14" value="&lt;b&gt;&lt;font style=&quot;font-size: 14px;&quot;&gt;Hiring_Date&lt;/font&gt;&lt;/b&gt;" style="rounded=0;whiteSpace=wrap;html=1;" vertex="1" parent="1">
          <mxGeometry x="171" y="-96" width="90" height="30" as="geometry" />
        </mxCell>
        <mxCell id="BKir_ti3wIF976m73uB4-15" value="&lt;b&gt;&lt;font style=&quot;font-size: 14px;&quot;&gt;Salary&lt;/font&gt;&lt;/b&gt;" style="rounded=0;whiteSpace=wrap;html=1;" vertex="1" parent="1">
          <mxGeometry x="261" y="-96" width="90" height="30" as="geometry" />
        </mxCell>
        <mxCell id="BKir_ti3wIF976m73uB4-16" value="Instructor" style="swimlane;fontStyle=1;childLayout=stackLayout;horizontal=1;startSize=20;fillColor=#B7272A;horizontalStack=0;resizeParent=1;resizeParentMax=0;resizeLast=0;collapsible=0;marginBottom=0;swimlaneFillColor=#ffffff;fontSize=14;fontColor=#FFFFFF;" vertex="1" parent="1">
          <mxGeometry x="81" y="-116" width="90" height="20" as="geometry" />
        </mxCell>
        <mxCell id="BKir_ti3wIF976m73uB4-17" value="&lt;b&gt;&lt;font style=&quot;font-size: 14px;&quot;&gt;Dept_ID&lt;/font&gt;&lt;/b&gt;" style="rounded=0;whiteSpace=wrap;html=1;fillColor=#E6E6E6;" vertex="1" parent="1">
          <mxGeometry x="351" y="-96" width="90" height="30" as="geometry" />
        </mxCell>
        <mxCell id="BKir_ti3wIF976m73uB4-18" value="" style="endArrow=none;dashed=1;html=1;rounded=0;" edge="1" parent="1">
          <mxGeometry width="50" height="50" relative="1" as="geometry">
            <mxPoint x="363.5" y="-71" as="sourcePoint" />
            <mxPoint x="428.5" y="-71" as="targetPoint" />
          </mxGeometry>
        </mxCell>
        <mxCell id="BKir_ti3wIF976m73uB4-19" value="&lt;b&gt;&lt;font style=&quot;font-size: 14px;&quot;&gt;Dept_ID&lt;/font&gt;&lt;/b&gt;" style="rounded=0;whiteSpace=wrap;html=1;" vertex="1" parent="1">
          <mxGeometry x="80" y="-30" width="90" height="30" as="geometry" />
        </mxCell>
        <mxCell id="BKir_ti3wIF976m73uB4-20" value="&lt;span style=&quot;font-size: 14px;&quot;&gt;&lt;b&gt;Dept_Name&lt;/b&gt;&lt;/span&gt;" style="rounded=0;whiteSpace=wrap;html=1;" vertex="1" parent="1">
          <mxGeometry x="170" y="-30" width="90" height="30" as="geometry" />
        </mxCell>
        <mxCell id="BKir_ti3wIF976m73uB4-21" value="Department" style="swimlane;fontStyle=1;childLayout=stackLayout;horizontal=1;startSize=20;fillColor=#B7272A;horizontalStack=0;resizeParent=1;resizeParentMax=0;resizeLast=0;collapsible=0;marginBottom=0;swimlaneFillColor=#ffffff;fontSize=14;fontColor=#FFFFFF;" vertex="1" parent="1">
          <mxGeometry x="80" y="-50" width="90" height="20" as="geometry" />
        </mxCell>
        <mxCell id="BKir_ti3wIF976m73uB4-22" value="" style="endArrow=none;html=1;rounded=0;" edge="1" parent="1">
          <mxGeometry width="50" height="50" relative="1" as="geometry">
            <mxPoint x="96" y="-5" as="sourcePoint" />
            <mxPoint x="156" y="-5" as="targetPoint" />
          </mxGeometry>
        </mxCell>
        <mxCell id="BKir_ti3wIF976m73uB4-38" value="&lt;b&gt;&lt;font style=&quot;font-size: 14px;&quot;&gt;Topic_ID&lt;/font&gt;&lt;/b&gt;" style="rounded=0;whiteSpace=wrap;html=1;" vertex="1" parent="1">
          <mxGeometry x="748" y="56" width="90" height="30" as="geometry" />
        </mxCell>
        <mxCell id="BKir_ti3wIF976m73uB4-39" value="&lt;span style=&quot;font-size: 14px;&quot;&gt;&lt;b&gt;Name&lt;/b&gt;&lt;/span&gt;" style="rounded=0;whiteSpace=wrap;html=1;" vertex="1" parent="1">
          <mxGeometry x="838" y="56" width="90" height="30" as="geometry" />
        </mxCell>
        <mxCell id="BKir_ti3wIF976m73uB4-40" value="Topic" style="swimlane;fontStyle=1;childLayout=stackLayout;horizontal=1;startSize=20;fillColor=#B7272A;horizontalStack=0;resizeParent=1;resizeParentMax=0;resizeLast=0;collapsible=0;marginBottom=0;swimlaneFillColor=#ffffff;fontSize=14;fontColor=#FFFFFF;" vertex="1" parent="1">
          <mxGeometry x="748" y="36" width="90" height="20" as="geometry" />
        </mxCell>
        <mxCell id="BKir_ti3wIF976m73uB4-41" value="" style="endArrow=none;html=1;rounded=0;" edge="1" parent="1">
          <mxGeometry width="50" height="50" relative="1" as="geometry">
            <mxPoint x="764" y="81" as="sourcePoint" />
            <mxPoint x="824" y="81" as="targetPoint" />
          </mxGeometry>
        </mxCell>
        <mxCell id="BKir_ti3wIF976m73uB4-42" value="Supervisor" style="swimlane;fontStyle=1;childLayout=stackLayout;horizontal=1;startSize=20;fillColor=#B7272A;horizontalStack=0;resizeParent=1;resizeParentMax=0;resizeLast=0;collapsible=0;marginBottom=0;swimlaneFillColor=#ffffff;fontSize=14;fontColor=#FFFFFF;" vertex="1" parent="1">
          <mxGeometry x="82" y="36" width="180" height="20" as="geometry" />
        </mxCell>
        <mxCell id="BKir_ti3wIF976m73uB4-43" value="&lt;b&gt;&lt;font style=&quot;font-size: 14px;&quot;&gt;Dept_ID&lt;/font&gt;&lt;/b&gt;" style="rounded=0;whiteSpace=wrap;html=1;fillColor=#FFCCCC;" vertex="1" parent="1">
          <mxGeometry x="82" y="56" width="90" height="30" as="geometry" />
        </mxCell>
        <mxCell id="BKir_ti3wIF976m73uB4-44" value="&lt;font style=&quot;font-size: 14px;&quot;&gt;&lt;b&gt;Ins_ID&lt;/b&gt;&lt;/font&gt;" style="rounded=0;whiteSpace=wrap;html=1;fillColor=#FFCCCC;" vertex="1" parent="1">
          <mxGeometry x="172" y="56" width="90" height="30" as="geometry" />
        </mxCell>
        <mxCell id="BKir_ti3wIF976m73uB4-45" value="" style="endArrow=none;dashed=1;html=1;rounded=0;" edge="1" parent="1">
          <mxGeometry width="50" height="50" relative="1" as="geometry">
            <mxPoint x="94.5" y="80" as="sourcePoint" />
            <mxPoint x="159.5" y="80" as="targetPoint" />
          </mxGeometry>
        </mxCell>
        <mxCell id="BKir_ti3wIF976m73uB4-46" value="" style="endArrow=none;html=1;rounded=0;entryX=0.75;entryY=1;entryDx=0;entryDy=0;exitX=0.133;exitY=0.893;exitDx=0;exitDy=0;fontColor=#FFFFFF;exitPerimeter=0;" edge="1" parent="1" source="BKir_ti3wIF976m73uB4-43">
          <mxGeometry width="50" height="50" relative="1" as="geometry">
            <mxPoint x="112" y="83" as="sourcePoint" />
            <mxPoint x="247" y="83" as="targetPoint" />
          </mxGeometry>
        </mxCell>
        <mxCell id="BKir_ti3wIF976m73uB4-47" value="" style="endArrow=none;dashed=1;html=1;rounded=0;" edge="1" parent="1">
          <mxGeometry width="50" height="50" relative="1" as="geometry">
            <mxPoint x="188" y="80" as="sourcePoint" />
            <mxPoint x="253" y="80" as="targetPoint" />
          </mxGeometry>
        </mxCell>
        <mxCell id="BKir_ti3wIF976m73uB4-48" value="&lt;b&gt;&lt;font style=&quot;font-size: 14px;&quot;&gt;S_Date&lt;/font&gt;&lt;/b&gt;" style="rounded=0;whiteSpace=wrap;html=1;" vertex="1" parent="1">
          <mxGeometry x="262" y="56" width="90" height="30" as="geometry" />
        </mxCell>
        <mxCell id="BKir_ti3wIF976m73uB4-49" value="&lt;b&gt;&lt;font style=&quot;font-size: 14px;&quot;&gt;End_Date&lt;/font&gt;&lt;/b&gt;" style="rounded=0;whiteSpace=wrap;html=1;" vertex="1" parent="1">
          <mxGeometry x="352" y="56" width="90" height="30" as="geometry" />
        </mxCell>
        <mxCell id="BKir_ti3wIF976m73uB4-60" value="&lt;b&gt;&lt;font style=&quot;font-size: 14px;&quot;&gt;Exam_ID&lt;/font&gt;&lt;/b&gt;" style="rounded=0;whiteSpace=wrap;html=1;" vertex="1" parent="1">
          <mxGeometry x="79" y="150" width="90" height="30" as="geometry" />
        </mxCell>
        <mxCell id="BKir_ti3wIF976m73uB4-61" value="&lt;b&gt;&lt;font style=&quot;font-size: 14px;&quot;&gt;Qty_T/F&lt;/font&gt;&lt;/b&gt;" style="rounded=0;whiteSpace=wrap;html=1;" vertex="1" parent="1">
          <mxGeometry x="279" y="150" width="90" height="30" as="geometry" />
        </mxCell>
        <mxCell id="BKir_ti3wIF976m73uB4-62" value="Exam" style="swimlane;fontStyle=1;childLayout=stackLayout;horizontal=1;startSize=20;fillColor=#B7272A;horizontalStack=0;resizeParent=1;resizeParentMax=0;resizeLast=0;collapsible=0;marginBottom=0;swimlaneFillColor=#ffffff;fontSize=14;fontColor=#FFFFFF;" vertex="1" parent="1">
          <mxGeometry x="79" y="130" width="90" height="20" as="geometry" />
        </mxCell>
        <mxCell id="BKir_ti3wIF976m73uB4-63" value="&lt;b&gt;&lt;font style=&quot;font-size: 14px;&quot;&gt;Crs_ID&lt;/font&gt;&lt;/b&gt;" style="rounded=0;whiteSpace=wrap;html=1;fillColor=#E6E6E6;" vertex="1" parent="1">
          <mxGeometry x="637" y="150" width="90" height="30" as="geometry" />
        </mxCell>
        <mxCell id="BKir_ti3wIF976m73uB4-64" value="&lt;b&gt;&lt;font style=&quot;font-size: 14px;&quot;&gt;Ins_ID&lt;/font&gt;&lt;/b&gt;" style="rounded=0;whiteSpace=wrap;html=1;fillColor=#E6E6E6;" vertex="1" parent="1">
          <mxGeometry x="727" y="150" width="90" height="30" as="geometry" />
        </mxCell>
        <mxCell id="BKir_ti3wIF976m73uB4-65" value="&lt;b&gt;&lt;font style=&quot;font-size: 14px;&quot;&gt;Exam_Type&lt;/font&gt;&lt;/b&gt;" style="rounded=0;whiteSpace=wrap;html=1;" vertex="1" parent="1">
          <mxGeometry x="169" y="150" width="110" height="30" as="geometry" />
        </mxCell>
        <mxCell id="BKir_ti3wIF976m73uB4-66" value="" style="endArrow=none;dashed=1;html=1;rounded=0;" edge="1" parent="1">
          <mxGeometry width="50" height="50" relative="1" as="geometry">
            <mxPoint x="384" y="175" as="sourcePoint" />
            <mxPoint x="449" y="175" as="targetPoint" />
          </mxGeometry>
        </mxCell>
        <mxCell id="BKir_ti3wIF976m73uB4-67" value="&lt;b&gt;&lt;font style=&quot;font-size: 14px;&quot;&gt;Qty_MCQ&lt;/font&gt;&lt;/b&gt;" style="rounded=0;whiteSpace=wrap;html=1;" vertex="1" parent="1">
          <mxGeometry x="369" y="150" width="90" height="30" as="geometry" />
        </mxCell>
        <mxCell id="BKir_ti3wIF976m73uB4-68" value="&lt;b&gt;&lt;font style=&quot;font-size: 14px;&quot;&gt;Duration&lt;/font&gt;&lt;/b&gt;" style="rounded=0;whiteSpace=wrap;html=1;" vertex="1" parent="1">
          <mxGeometry x="457" y="150" width="90" height="30" as="geometry" />
        </mxCell>
        <mxCell id="BKir_ti3wIF976m73uB4-69" value="&lt;b&gt;&lt;font style=&quot;font-size: 14px;&quot;&gt;Date&lt;/font&gt;&lt;/b&gt;" style="rounded=0;whiteSpace=wrap;html=1;" vertex="1" parent="1">
          <mxGeometry x="547" y="150" width="90" height="30" as="geometry" />
        </mxCell>
        <mxCell id="BKir_ti3wIF976m73uB4-70" value="" style="endArrow=none;html=1;rounded=0;" edge="1" parent="1">
          <mxGeometry width="50" height="50" relative="1" as="geometry">
            <mxPoint x="94" y="176" as="sourcePoint" />
            <mxPoint x="154" y="176" as="targetPoint" />
          </mxGeometry>
        </mxCell>
        <mxCell id="BKir_ti3wIF976m73uB4-71" value="" style="endArrow=none;dashed=1;html=1;rounded=0;" edge="1" parent="1">
          <mxGeometry width="50" height="50" relative="1" as="geometry">
            <mxPoint x="649.5" y="174" as="sourcePoint" />
            <mxPoint x="714.5" y="174" as="targetPoint" />
          </mxGeometry>
        </mxCell>
        <mxCell id="BKir_ti3wIF976m73uB4-72" value="" style="endArrow=none;dashed=1;html=1;rounded=0;" edge="1" parent="1">
          <mxGeometry width="50" height="50" relative="1" as="geometry">
            <mxPoint x="741.5" y="175" as="sourcePoint" />
            <mxPoint x="806.5" y="175" as="targetPoint" />
          </mxGeometry>
        </mxCell>
        <mxCell id="BKir_ti3wIF976m73uB4-73" value="Crs_Qst" style="swimlane;fontStyle=1;childLayout=stackLayout;horizontal=1;startSize=20;fillColor=#B7272A;horizontalStack=0;resizeParent=1;resizeParentMax=0;resizeLast=0;collapsible=0;marginBottom=0;swimlaneFillColor=#ffffff;fontSize=14;fontColor=#FFFFFF;" vertex="1" parent="1">
          <mxGeometry x="748" y="320" width="180" height="20" as="geometry" />
        </mxCell>
        <mxCell id="BKir_ti3wIF976m73uB4-74" value="&lt;b&gt;&lt;font style=&quot;font-size: 14px;&quot;&gt;Crs_ID&lt;/font&gt;&lt;/b&gt;" style="rounded=0;whiteSpace=wrap;html=1;fillColor=#FFCCCC;" vertex="1" parent="1">
          <mxGeometry x="748" y="340" width="90" height="30" as="geometry" />
        </mxCell>
        <mxCell id="BKir_ti3wIF976m73uB4-75" value="&lt;font style=&quot;font-size: 14px;&quot;&gt;&lt;b&gt;Q_ID&lt;/b&gt;&lt;/font&gt;" style="rounded=0;whiteSpace=wrap;html=1;fillColor=#FFCCCC;" vertex="1" parent="1">
          <mxGeometry x="838" y="340" width="90" height="30" as="geometry" />
        </mxCell>
        <mxCell id="BKir_ti3wIF976m73uB4-76" value="" style="endArrow=none;dashed=1;html=1;rounded=0;" edge="1" parent="1">
          <mxGeometry width="50" height="50" relative="1" as="geometry">
            <mxPoint x="760.5" y="364" as="sourcePoint" />
            <mxPoint x="825.5" y="364" as="targetPoint" />
          </mxGeometry>
        </mxCell>
        <mxCell id="BKir_ti3wIF976m73uB4-77" value="" style="endArrow=none;html=1;rounded=0;entryX=0.75;entryY=1;entryDx=0;entryDy=0;exitX=0.133;exitY=0.893;exitDx=0;exitDy=0;fontColor=#FFFFFF;exitPerimeter=0;" edge="1" parent="1" source="BKir_ti3wIF976m73uB4-74">
          <mxGeometry width="50" height="50" relative="1" as="geometry">
            <mxPoint x="778" y="367" as="sourcePoint" />
            <mxPoint x="913" y="367" as="targetPoint" />
          </mxGeometry>
        </mxCell>
        <mxCell id="BKir_ti3wIF976m73uB4-78" value="" style="endArrow=none;dashed=1;html=1;rounded=0;" edge="1" parent="1">
          <mxGeometry width="50" height="50" relative="1" as="geometry">
            <mxPoint x="856" y="364" as="sourcePoint" />
            <mxPoint x="921" y="364" as="targetPoint" />
          </mxGeometry>
        </mxCell>
        <mxCell id="BKir_ti3wIF976m73uB4-79" value="Track_Crs" style="swimlane;fontStyle=1;childLayout=stackLayout;horizontal=1;startSize=20;fillColor=#B7272A;horizontalStack=0;resizeParent=1;resizeParentMax=0;resizeLast=0;collapsible=0;marginBottom=0;swimlaneFillColor=#ffffff;fontSize=14;fontColor=#FFFFFF;" vertex="1" parent="1">
          <mxGeometry x="751" y="430" width="180" height="20" as="geometry" />
        </mxCell>
        <mxCell id="BKir_ti3wIF976m73uB4-80" value="&lt;b&gt;&lt;font style=&quot;font-size: 14px;&quot;&gt;Track_ID&lt;/font&gt;&lt;/b&gt;" style="rounded=0;whiteSpace=wrap;html=1;fillColor=#FFCCCC;" vertex="1" parent="1">
          <mxGeometry x="751" y="450" width="90" height="30" as="geometry" />
        </mxCell>
        <mxCell id="BKir_ti3wIF976m73uB4-81" value="&lt;font style=&quot;font-size: 14px;&quot;&gt;&lt;b&gt;Crs_ID&lt;/b&gt;&lt;/font&gt;" style="rounded=0;whiteSpace=wrap;html=1;fillColor=#FFCCCC;" vertex="1" parent="1">
          <mxGeometry x="841" y="450" width="90" height="30" as="geometry" />
        </mxCell>
        <mxCell id="BKir_ti3wIF976m73uB4-82" value="" style="endArrow=none;dashed=1;html=1;rounded=0;" edge="1" parent="1">
          <mxGeometry width="50" height="50" relative="1" as="geometry">
            <mxPoint x="763.5" y="474" as="sourcePoint" />
            <mxPoint x="828.5" y="474" as="targetPoint" />
          </mxGeometry>
        </mxCell>
        <mxCell id="BKir_ti3wIF976m73uB4-83" value="" style="endArrow=none;html=1;rounded=0;entryX=0.75;entryY=1;entryDx=0;entryDy=0;exitX=0.133;exitY=0.893;exitDx=0;exitDy=0;fontColor=#FFFFFF;exitPerimeter=0;" edge="1" parent="1" source="BKir_ti3wIF976m73uB4-80">
          <mxGeometry width="50" height="50" relative="1" as="geometry">
            <mxPoint x="781" y="477" as="sourcePoint" />
            <mxPoint x="916" y="477" as="targetPoint" />
          </mxGeometry>
        </mxCell>
        <mxCell id="BKir_ti3wIF976m73uB4-84" value="" style="endArrow=none;dashed=1;html=1;rounded=0;" edge="1" parent="1">
          <mxGeometry width="50" height="50" relative="1" as="geometry">
            <mxPoint x="859" y="474" as="sourcePoint" />
            <mxPoint x="924" y="474" as="targetPoint" />
          </mxGeometry>
        </mxCell>
        <mxCell id="BKir_ti3wIF976m73uB4-85" value="Exam_Qst" style="swimlane;fontStyle=1;childLayout=stackLayout;horizontal=1;startSize=20;fillColor=#B7272A;horizontalStack=0;resizeParent=1;resizeParentMax=0;resizeLast=0;collapsible=0;marginBottom=0;swimlaneFillColor=#ffffff;fontSize=14;fontColor=#FFFFFF;" vertex="1" parent="1">
          <mxGeometry x="751" y="530" width="180" height="50" as="geometry" />
        </mxCell>
        <mxCell id="BKir_ti3wIF976m73uB4-86" value="&lt;b&gt;&lt;font style=&quot;font-size: 14px;&quot;&gt;ExamQst_ID&lt;/font&gt;&lt;/b&gt;" style="rounded=0;whiteSpace=wrap;html=1;fillColor=#FFCCCC;" vertex="1" parent="1">
          <mxGeometry x="751" y="550" width="90" height="30" as="geometry" />
        </mxCell>
        <mxCell id="BKir_ti3wIF976m73uB4-87" value="&lt;font style=&quot;font-size: 14px;&quot;&gt;&lt;b&gt;Exam_ID&lt;/b&gt;&lt;/font&gt;" style="rounded=0;whiteSpace=wrap;html=1;fillColor=#FFCCCC;" vertex="1" parent="1">
          <mxGeometry x="841" y="550" width="90" height="30" as="geometry" />
        </mxCell>
        <mxCell id="BKir_ti3wIF976m73uB4-89" value="" style="endArrow=none;html=1;rounded=0;entryX=0.75;entryY=1;entryDx=0;entryDy=0;exitX=0.133;exitY=0.893;exitDx=0;exitDy=0;fontColor=#FFFFFF;exitPerimeter=0;" edge="1" parent="1" source="BKir_ti3wIF976m73uB4-86">
          <mxGeometry width="50" height="50" relative="1" as="geometry">
            <mxPoint x="781" y="577" as="sourcePoint" />
            <mxPoint x="916" y="577" as="targetPoint" />
          </mxGeometry>
        </mxCell>
        <mxCell id="BKir_ti3wIF976m73uB4-91" value="&lt;span style=&quot;font-size: 14px;&quot;&gt;&lt;b&gt;Q_ID&lt;/b&gt;&lt;/span&gt;" style="rounded=0;whiteSpace=wrap;html=1;" vertex="1" parent="1">
          <mxGeometry x="931" y="550" width="110" height="30" as="geometry" />
        </mxCell>
        <mxCell id="BKir_ti3wIF976m73uB4-92" value="&lt;b&gt;&lt;font style=&quot;font-size: 14px;&quot;&gt;Q_ID&lt;/font&gt;&lt;/b&gt;" style="rounded=0;whiteSpace=wrap;html=1;" vertex="1" parent="1">
          <mxGeometry x="80" y="250" width="90" height="30" as="geometry" />
        </mxCell>
        <mxCell id="BKir_ti3wIF976m73uB4-93" value="&lt;b&gt;&lt;font style=&quot;font-size: 14px;&quot;&gt;Type&lt;/font&gt;&lt;/b&gt;" style="rounded=0;whiteSpace=wrap;html=1;" vertex="1" parent="1">
          <mxGeometry x="280" y="250" width="90" height="30" as="geometry" />
        </mxCell>
        <mxCell id="BKir_ti3wIF976m73uB4-94" value="Questions" style="swimlane;fontStyle=1;childLayout=stackLayout;horizontal=1;startSize=20;fillColor=#B7272A;horizontalStack=0;resizeParent=1;resizeParentMax=0;resizeLast=0;collapsible=0;marginBottom=0;swimlaneFillColor=#ffffff;fontSize=14;fontColor=#FFFFFF;" vertex="1" parent="1">
          <mxGeometry x="80" y="230" width="90" height="20" as="geometry" />
        </mxCell>
        <mxCell id="BKir_ti3wIF976m73uB4-95" value="&lt;b&gt;&lt;font style=&quot;font-size: 14px;&quot;&gt;Qst_Content&lt;/font&gt;&lt;/b&gt;" style="rounded=0;whiteSpace=wrap;html=1;" vertex="1" parent="1">
          <mxGeometry x="170" y="250" width="110" height="30" as="geometry" />
        </mxCell>
        <mxCell id="BKir_ti3wIF976m73uB4-96" value="" style="endArrow=none;dashed=1;html=1;rounded=0;" edge="1" parent="1">
          <mxGeometry width="50" height="50" relative="1" as="geometry">
            <mxPoint x="385" y="275" as="sourcePoint" />
            <mxPoint x="450" y="275" as="targetPoint" />
          </mxGeometry>
        </mxCell>
        <mxCell id="BKir_ti3wIF976m73uB4-97" value="&lt;b&gt;&lt;font style=&quot;font-size: 14px;&quot;&gt;Answer&lt;/font&gt;&lt;/b&gt;" style="rounded=0;whiteSpace=wrap;html=1;" vertex="1" parent="1">
          <mxGeometry x="370" y="250" width="90" height="30" as="geometry" />
        </mxCell>
        <mxCell id="BKir_ti3wIF976m73uB4-99" value="" style="endArrow=none;html=1;rounded=0;" edge="1" parent="1">
          <mxGeometry width="50" height="50" relative="1" as="geometry">
            <mxPoint x="95" y="276" as="sourcePoint" />
            <mxPoint x="155" y="276" as="targetPoint" />
          </mxGeometry>
        </mxCell>
        <mxCell id="BKir_ti3wIF976m73uB4-100" value="Questions _Choices" style="swimlane;fontStyle=1;childLayout=stackLayout;horizontal=1;startSize=20;fillColor=#B7272A;horizontalStack=0;resizeParent=1;resizeParentMax=0;resizeLast=0;collapsible=0;marginBottom=0;swimlaneFillColor=#ffffff;fontSize=14;fontColor=#FFFFFF;" vertex="1" parent="1">
          <mxGeometry x="79" y="320" width="180" height="20" as="geometry" />
        </mxCell>
        <mxCell id="BKir_ti3wIF976m73uB4-101" value="&lt;b&gt;&lt;font style=&quot;font-size: 14px;&quot;&gt;Q_ID&lt;/font&gt;&lt;/b&gt;" style="rounded=0;whiteSpace=wrap;html=1;fillColor=#FFCCCC;" vertex="1" parent="1">
          <mxGeometry x="79" y="340" width="90" height="30" as="geometry" />
        </mxCell>
        <mxCell id="BKir_ti3wIF976m73uB4-102" value="&lt;font style=&quot;font-size: 14px;&quot;&gt;&lt;b&gt;Choice&lt;/b&gt;&lt;/font&gt;" style="rounded=0;whiteSpace=wrap;html=1;fillColor=#FFCCCC;" vertex="1" parent="1">
          <mxGeometry x="169" y="340" width="90" height="30" as="geometry" />
        </mxCell>
        <mxCell id="BKir_ti3wIF976m73uB4-104" value="" style="endArrow=none;html=1;rounded=0;entryX=0.75;entryY=1;entryDx=0;entryDy=0;exitX=0.133;exitY=0.893;exitDx=0;exitDy=0;fontColor=#FFFFFF;exitPerimeter=0;" edge="1" parent="1" source="BKir_ti3wIF976m73uB4-101">
          <mxGeometry width="50" height="50" relative="1" as="geometry">
            <mxPoint x="109" y="367" as="sourcePoint" />
            <mxPoint x="244" y="367" as="targetPoint" />
          </mxGeometry>
        </mxCell>
        <mxCell id="BKir_ti3wIF976m73uB4-106" value="&lt;b&gt;&lt;font style=&quot;font-size: 14px;&quot;&gt;Track_ID&lt;/font&gt;&lt;/b&gt;" style="rounded=0;whiteSpace=wrap;html=1;" vertex="1" parent="1">
          <mxGeometry x="79" y="450" width="90" height="30" as="geometry" />
        </mxCell>
        <mxCell id="BKir_ti3wIF976m73uB4-108" value="Track" style="swimlane;fontStyle=1;childLayout=stackLayout;horizontal=1;startSize=20;fillColor=#B7272A;horizontalStack=0;resizeParent=1;resizeParentMax=0;resizeLast=0;collapsible=0;marginBottom=0;swimlaneFillColor=#ffffff;fontSize=14;fontColor=#FFFFFF;" vertex="1" parent="1">
          <mxGeometry x="79" y="430" width="90" height="20" as="geometry" />
        </mxCell>
        <mxCell id="BKir_ti3wIF976m73uB4-109" value="&lt;span style=&quot;font-size: 14px;&quot;&gt;&lt;b&gt;TrackName&lt;/b&gt;&lt;/span&gt;" style="rounded=0;whiteSpace=wrap;html=1;" vertex="1" parent="1">
          <mxGeometry x="169" y="450" width="110" height="30" as="geometry" />
        </mxCell>
        <mxCell id="BKir_ti3wIF976m73uB4-110" value="" style="endArrow=none;dashed=1;html=1;rounded=0;" edge="1" parent="1">
          <mxGeometry width="50" height="50" relative="1" as="geometry">
            <mxPoint x="291.25" y="474" as="sourcePoint" />
            <mxPoint x="356.75" y="474" as="targetPoint" />
          </mxGeometry>
        </mxCell>
        <mxCell id="BKir_ti3wIF976m73uB4-111" value="&lt;b&gt;&lt;font style=&quot;font-size: 14px;&quot;&gt;Dept_ID&lt;/font&gt;&lt;/b&gt;" style="rounded=0;whiteSpace=wrap;html=1;fillColor=#E6E6E6;" vertex="1" parent="1">
          <mxGeometry x="279" y="450" width="90" height="30" as="geometry" />
        </mxCell>
        <mxCell id="BKir_ti3wIF976m73uB4-112" value="" style="endArrow=none;html=1;rounded=0;" edge="1" parent="1">
          <mxGeometry width="50" height="50" relative="1" as="geometry">
            <mxPoint x="94" y="476" as="sourcePoint" />
            <mxPoint x="154" y="476" as="targetPoint" />
          </mxGeometry>
        </mxCell>
        <mxCell id="BKir_ti3wIF976m73uB4-113" value="" style="endArrow=none;dashed=1;html=1;rounded=0;" edge="1" parent="1">
          <mxGeometry width="50" height="50" relative="1" as="geometry">
            <mxPoint x="291.5" y="475" as="sourcePoint" />
            <mxPoint x="356.5" y="475" as="targetPoint" />
          </mxGeometry>
        </mxCell>
        <mxCell id="BKir_ti3wIF976m73uB4-114" value="Std_Exam_Qst" style="swimlane;fontStyle=1;childLayout=stackLayout;horizontal=1;startSize=20;fillColor=#B7272A;horizontalStack=0;resizeParent=1;resizeParentMax=0;resizeLast=0;collapsible=0;marginBottom=0;swimlaneFillColor=#ffffff;fontSize=14;fontColor=#FFFFFF;" vertex="1" parent="1">
          <mxGeometry x="80" y="531" width="190" height="20" as="geometry" />
        </mxCell>
        <mxCell id="BKir_ti3wIF976m73uB4-115" value="&lt;b&gt;&lt;font style=&quot;font-size: 14px;&quot;&gt;Std_ID&lt;/font&gt;&lt;/b&gt;" style="rounded=0;whiteSpace=wrap;html=1;fillColor=#FFCCCC;" vertex="1" parent="1">
          <mxGeometry x="80" y="551" width="90" height="30" as="geometry" />
        </mxCell>
        <mxCell id="BKir_ti3wIF976m73uB4-117" value="" style="endArrow=none;dashed=1;html=1;rounded=0;" edge="1" parent="1">
          <mxGeometry width="50" height="50" relative="1" as="geometry">
            <mxPoint x="94.5" y="575" as="sourcePoint" />
            <mxPoint x="160" y="575" as="targetPoint" />
          </mxGeometry>
        </mxCell>
        <mxCell id="BKir_ti3wIF976m73uB4-119" value="&lt;b&gt;&lt;font style=&quot;font-size: 14px;&quot;&gt;ExamQst_ID&lt;/font&gt;&lt;/b&gt;" style="rounded=0;whiteSpace=wrap;html=1;fillColor=#FFCCCC;" vertex="1" parent="1">
          <mxGeometry x="171" y="551" width="99" height="30" as="geometry" />
        </mxCell>
        <mxCell id="BKir_ti3wIF976m73uB4-121" value="" style="endArrow=none;dashed=1;html=1;rounded=0;" edge="1" parent="1">
          <mxGeometry width="50" height="50" relative="1" as="geometry">
            <mxPoint x="182.25" y="575" as="sourcePoint" />
            <mxPoint x="247.75" y="575" as="targetPoint" />
          </mxGeometry>
        </mxCell>
        <mxCell id="BKir_ti3wIF976m73uB4-122" value="" style="endArrow=none;html=1;rounded=0;entryX=0.75;entryY=1;entryDx=0;entryDy=0;exitX=0.133;exitY=0.893;exitDx=0;exitDy=0;fontColor=#FFFFFF;exitPerimeter=0;" edge="1" parent="1">
          <mxGeometry width="50" height="50" relative="1" as="geometry">
            <mxPoint x="98.5" y="578" as="sourcePoint" />
            <mxPoint x="251.5" y="578" as="targetPoint" />
          </mxGeometry>
        </mxCell>
        <mxCell id="BKir_ti3wIF976m73uB4-123" value="&lt;span style=&quot;font-size: 14px;&quot;&gt;&lt;b&gt;Std_Ans&lt;/b&gt;&lt;/span&gt;" style="rounded=0;whiteSpace=wrap;html=1;" vertex="1" parent="1">
          <mxGeometry x="270" y="551" width="130" height="30" as="geometry" />
        </mxCell>
        <mxCell id="BKir_ti3wIF976m73uB4-125" value="&lt;b&gt;&lt;font style=&quot;font-size: 14px;&quot;&gt;Grade&lt;/font&gt;&lt;/b&gt;" style="rounded=0;whiteSpace=wrap;html=1;" vertex="1" parent="1">
          <mxGeometry x="530" y="551" width="90" height="30" as="geometry" />
        </mxCell>
        <mxCell id="BKir_ti3wIF976m73uB4-126" value="&lt;span style=&quot;font-size: 14px;&quot;&gt;&lt;b&gt;Correct_Ans&lt;/b&gt;&lt;/span&gt;" style="rounded=0;whiteSpace=wrap;html=1;" vertex="1" parent="1">
          <mxGeometry x="400" y="551" width="130" height="30" as="geometry" />
        </mxCell>
        <mxCell id="BKir_ti3wIF976m73uB4-134" value="&lt;b&gt;&lt;font style=&quot;font-size: 14px;&quot;&gt;Intake_ID&lt;/font&gt;&lt;/b&gt;" style="rounded=0;whiteSpace=wrap;html=1;" vertex="1" parent="1">
          <mxGeometry x="79" y="640" width="90" height="30" as="geometry" />
        </mxCell>
        <mxCell id="BKir_ti3wIF976m73uB4-136" value="Intake " style="swimlane;fontStyle=1;childLayout=stackLayout;horizontal=1;startSize=20;fillColor=#B7272A;horizontalStack=0;resizeParent=1;resizeParentMax=0;resizeLast=0;collapsible=0;marginBottom=0;swimlaneFillColor=#ffffff;fontSize=14;fontColor=#FFFFFF;" vertex="1" parent="1">
          <mxGeometry x="79" y="620" width="90" height="20" as="geometry" />
        </mxCell>
        <mxCell id="BKir_ti3wIF976m73uB4-137" value="&lt;span style=&quot;font-size: 14px;&quot;&gt;&lt;b&gt;Type&lt;/b&gt;&lt;/span&gt;" style="rounded=0;whiteSpace=wrap;html=1;" vertex="1" parent="1">
          <mxGeometry x="169" y="640" width="110" height="30" as="geometry" />
        </mxCell>
        <mxCell id="BKir_ti3wIF976m73uB4-138" value="" style="endArrow=none;dashed=1;html=1;rounded=0;" edge="1" parent="1">
          <mxGeometry width="50" height="50" relative="1" as="geometry">
            <mxPoint x="384" y="665" as="sourcePoint" />
            <mxPoint x="449" y="665" as="targetPoint" />
          </mxGeometry>
        </mxCell>
        <mxCell id="BKir_ti3wIF976m73uB4-140" value="" style="endArrow=none;html=1;rounded=0;" edge="1" parent="1">
          <mxGeometry width="50" height="50" relative="1" as="geometry">
            <mxPoint x="94" y="666" as="sourcePoint" />
            <mxPoint x="154" y="666" as="targetPoint" />
          </mxGeometry>
        </mxCell>
        <mxCell id="BKir_ti3wIF976m73uB4-142" value="&lt;b&gt;&lt;font style=&quot;font-size: 14px;&quot;&gt;Start_Date&lt;/font&gt;&lt;/b&gt;" style="rounded=0;whiteSpace=wrap;html=1;" vertex="1" parent="1">
          <mxGeometry x="279" y="640" width="90" height="30" as="geometry" />
        </mxCell>
        <mxCell id="BKir_ti3wIF976m73uB4-143" value="&lt;b&gt;&lt;font style=&quot;font-size: 14px;&quot;&gt;End_Date&lt;/font&gt;&lt;/b&gt;" style="rounded=0;whiteSpace=wrap;html=1;" vertex="1" parent="1">
          <mxGeometry x="367" y="640" width="90" height="30" as="geometry" />
        </mxCell>
        <mxCell id="BKir_ti3wIF976m73uB4-144" value="&lt;b&gt;&lt;font style=&quot;font-size: 14px;&quot;&gt;Branch_ID&lt;/font&gt;&lt;/b&gt;" style="rounded=0;whiteSpace=wrap;html=1;" vertex="1" parent="1">
          <mxGeometry x="81" y="730" width="90" height="30" as="geometry" />
        </mxCell>
        <mxCell id="BKir_ti3wIF976m73uB4-145" value="Branch" style="swimlane;fontStyle=1;childLayout=stackLayout;horizontal=1;startSize=20;fillColor=#B7272A;horizontalStack=0;resizeParent=1;resizeParentMax=0;resizeLast=0;collapsible=0;marginBottom=0;swimlaneFillColor=#ffffff;fontSize=14;fontColor=#FFFFFF;" vertex="1" parent="1">
          <mxGeometry x="81" y="710" width="90" height="20" as="geometry" />
        </mxCell>
        <mxCell id="BKir_ti3wIF976m73uB4-214" value="" style="edgeStyle=orthogonalEdgeStyle;rounded=0;orthogonalLoop=1;jettySize=auto;html=1;" edge="1" parent="1" source="BKir_ti3wIF976m73uB4-146" target="BKir_ti3wIF976m73uB4-150">
          <mxGeometry relative="1" as="geometry" />
        </mxCell>
        <mxCell id="BKir_ti3wIF976m73uB4-146" value="&lt;span style=&quot;font-size: 14px;&quot;&gt;&lt;b&gt;Branch_Name&lt;/b&gt;&lt;/span&gt;" style="rounded=0;whiteSpace=wrap;html=1;" vertex="1" parent="1">
          <mxGeometry x="170" y="730" width="111" height="30" as="geometry" />
        </mxCell>
        <mxCell id="BKir_ti3wIF976m73uB4-147" value="" style="endArrow=none;dashed=1;html=1;rounded=0;" edge="1" parent="1">
          <mxGeometry width="50" height="50" relative="1" as="geometry">
            <mxPoint x="386" y="755" as="sourcePoint" />
            <mxPoint x="451" y="755" as="targetPoint" />
          </mxGeometry>
        </mxCell>
        <mxCell id="BKir_ti3wIF976m73uB4-148" value="" style="endArrow=none;html=1;rounded=0;" edge="1" parent="1">
          <mxGeometry width="50" height="50" relative="1" as="geometry">
            <mxPoint x="96" y="756" as="sourcePoint" />
            <mxPoint x="156" y="756" as="targetPoint" />
          </mxGeometry>
        </mxCell>
        <mxCell id="BKir_ti3wIF976m73uB4-149" value="&lt;b&gt;&lt;font style=&quot;font-size: 14px;&quot;&gt;Location&lt;/font&gt;&lt;/b&gt;" style="rounded=0;whiteSpace=wrap;html=1;" vertex="1" parent="1">
          <mxGeometry x="281" y="730" width="90" height="30" as="geometry" />
        </mxCell>
        <mxCell id="BKir_ti3wIF976m73uB4-150" value="&lt;span style=&quot;font-size: 14px;&quot;&gt;&lt;b&gt;Mng_ID&lt;/b&gt;&lt;/span&gt;" style="rounded=0;whiteSpace=wrap;html=1;fillColor=#E6E6E6;" vertex="1" parent="1">
          <mxGeometry x="369" y="730" width="90" height="30" as="geometry" />
        </mxCell>
        <mxCell id="BKir_ti3wIF976m73uB4-151" value="" style="endArrow=none;dashed=1;html=1;rounded=0;" edge="1" parent="1">
          <mxGeometry width="50" height="50" relative="1" as="geometry">
            <mxPoint x="385" y="755" as="sourcePoint" />
            <mxPoint x="450" y="755" as="targetPoint" />
          </mxGeometry>
        </mxCell>
        <mxCell id="BKir_ti3wIF976m73uB4-152" value="Intake_Brch_Trk" style="swimlane;fontStyle=1;childLayout=stackLayout;horizontal=1;startSize=20;fillColor=#B7272A;horizontalStack=0;resizeParent=1;resizeParentMax=0;resizeLast=0;collapsible=0;marginBottom=0;swimlaneFillColor=#ffffff;fontSize=14;fontColor=#FFFFFF;" vertex="1" parent="1">
          <mxGeometry x="79" y="800" width="271" height="20" as="geometry" />
        </mxCell>
        <mxCell id="BKir_ti3wIF976m73uB4-153" value="&lt;b&gt;&lt;font style=&quot;font-size: 14px;&quot;&gt;Intake_ID&lt;/font&gt;&lt;/b&gt;" style="rounded=0;whiteSpace=wrap;html=1;fillColor=#FFCCCC;" vertex="1" parent="1">
          <mxGeometry x="79" y="820" width="90" height="30" as="geometry" />
        </mxCell>
        <mxCell id="BKir_ti3wIF976m73uB4-154" value="&lt;font style=&quot;font-size: 14px;&quot;&gt;&lt;b&gt;Branch_ID&lt;/b&gt;&lt;/font&gt;" style="rounded=0;whiteSpace=wrap;html=1;fillColor=#FFCCCC;" vertex="1" parent="1">
          <mxGeometry x="169" y="820" width="90" height="30" as="geometry" />
        </mxCell>
        <mxCell id="BKir_ti3wIF976m73uB4-158" value="&lt;font style=&quot;font-size: 14px;&quot;&gt;&lt;b&gt;Track_ID&lt;/b&gt;&lt;/font&gt;" style="rounded=0;whiteSpace=wrap;html=1;fillColor=#FFCCCC;" vertex="1" parent="1">
          <mxGeometry x="259" y="820" width="90" height="30" as="geometry" />
        </mxCell>
        <mxCell id="BKir_ti3wIF976m73uB4-162" value="&lt;b&gt;&lt;font style=&quot;font-size: 14px;&quot;&gt;Company_ID&lt;/font&gt;&lt;/b&gt;" style="rounded=0;whiteSpace=wrap;html=1;" vertex="1" parent="1">
          <mxGeometry x="80" y="910" width="99" height="30" as="geometry" />
        </mxCell>
        <mxCell id="BKir_ti3wIF976m73uB4-163" value="Company" style="swimlane;fontStyle=1;childLayout=stackLayout;horizontal=1;startSize=20;fillColor=#B7272A;horizontalStack=0;resizeParent=1;resizeParentMax=0;resizeLast=0;collapsible=0;marginBottom=0;swimlaneFillColor=#ffffff;fontSize=14;fontColor=#FFFFFF;" vertex="1" parent="1">
          <mxGeometry x="80" y="890" width="99" height="20" as="geometry" />
        </mxCell>
        <mxCell id="BKir_ti3wIF976m73uB4-164" value="&lt;span style=&quot;font-size: 14px;&quot;&gt;&lt;b&gt;CompanyName&lt;/b&gt;&lt;/span&gt;" style="rounded=0;whiteSpace=wrap;html=1;" vertex="1" parent="1">
          <mxGeometry x="178" y="910" width="111" height="30" as="geometry" />
        </mxCell>
        <mxCell id="BKir_ti3wIF976m73uB4-165" value="" style="endArrow=none;html=1;rounded=0;" edge="1" parent="1">
          <mxGeometry width="50" height="50" relative="1" as="geometry">
            <mxPoint x="95" y="936" as="sourcePoint" />
            <mxPoint x="169" y="935" as="targetPoint" />
          </mxGeometry>
        </mxCell>
        <mxCell id="BKir_ti3wIF976m73uB4-166" value="&lt;b&gt;&lt;font style=&quot;font-size: 14px;&quot;&gt;Scope&lt;/font&gt;&lt;/b&gt;" style="rounded=0;whiteSpace=wrap;html=1;" vertex="1" parent="1">
          <mxGeometry x="289" y="910" width="90" height="30" as="geometry" />
        </mxCell>
        <mxCell id="BKir_ti3wIF976m73uB4-167" value="&lt;b&gt;&lt;font style=&quot;font-size: 14px;&quot;&gt;Free_ID&lt;/font&gt;&lt;/b&gt;" style="rounded=0;whiteSpace=wrap;html=1;" vertex="1" parent="1">
          <mxGeometry x="82" y="1000" width="138" height="30" as="geometry" />
        </mxCell>
        <mxCell id="BKir_ti3wIF976m73uB4-168" value="Freelance Platform" style="swimlane;fontStyle=1;childLayout=stackLayout;horizontal=1;startSize=20;fillColor=#B7272A;horizontalStack=0;resizeParent=1;resizeParentMax=0;resizeLast=0;collapsible=0;marginBottom=0;swimlaneFillColor=#ffffff;fontSize=14;fontColor=#FFFFFF;" vertex="1" parent="1">
          <mxGeometry x="82" y="980" width="138" height="20" as="geometry" />
        </mxCell>
        <mxCell id="BKir_ti3wIF976m73uB4-169" value="&lt;span style=&quot;font-size: 14px;&quot;&gt;&lt;b&gt;FreelanceName&lt;/b&gt;&lt;/span&gt;" style="rounded=0;whiteSpace=wrap;html=1;" vertex="1" parent="1">
          <mxGeometry x="220" y="1000" width="141" height="30" as="geometry" />
        </mxCell>
        <mxCell id="BKir_ti3wIF976m73uB4-170" value="" style="endArrow=none;html=1;rounded=0;" edge="1" parent="1">
          <mxGeometry width="50" height="50" relative="1" as="geometry">
            <mxPoint x="97" y="1026" as="sourcePoint" />
            <mxPoint x="171" y="1025" as="targetPoint" />
          </mxGeometry>
        </mxCell>
        <mxCell id="BKir_ti3wIF976m73uB4-171" value="Ins_Crs" style="swimlane;fontStyle=1;childLayout=stackLayout;horizontal=1;startSize=20;fillColor=#B7272A;horizontalStack=0;resizeParent=1;resizeParentMax=0;resizeLast=0;collapsible=0;marginBottom=0;swimlaneFillColor=#ffffff;fontSize=14;fontColor=#FFFFFF;" vertex="1" parent="1">
          <mxGeometry x="745" y="-140" width="180" height="20" as="geometry" />
        </mxCell>
        <mxCell id="BKir_ti3wIF976m73uB4-172" value="&lt;b&gt;&lt;font style=&quot;font-size: 14px;&quot;&gt;Crs_ID&lt;/font&gt;&lt;/b&gt;" style="rounded=0;whiteSpace=wrap;html=1;fillColor=#FFCCCC;" vertex="1" parent="1">
          <mxGeometry x="745" y="-120" width="90" height="30" as="geometry" />
        </mxCell>
        <mxCell id="BKir_ti3wIF976m73uB4-173" value="&lt;font style=&quot;font-size: 14px;&quot;&gt;&lt;b&gt;Ins_ID&lt;/b&gt;&lt;/font&gt;" style="rounded=0;whiteSpace=wrap;html=1;fillColor=#FFCCCC;" vertex="1" parent="1">
          <mxGeometry x="835" y="-120" width="90" height="30" as="geometry" />
        </mxCell>
        <mxCell id="BKir_ti3wIF976m73uB4-174" value="" style="endArrow=none;dashed=1;html=1;rounded=0;" edge="1" parent="1">
          <mxGeometry width="50" height="50" relative="1" as="geometry">
            <mxPoint x="757.5" y="-96" as="sourcePoint" />
            <mxPoint x="823" y="-96" as="targetPoint" />
          </mxGeometry>
        </mxCell>
        <mxCell id="BKir_ti3wIF976m73uB4-175" value="" style="endArrow=none;html=1;rounded=0;entryX=0.75;entryY=1;entryDx=0;entryDy=0;exitX=0.133;exitY=0.893;exitDx=0;exitDy=0;fontColor=#FFFFFF;exitPerimeter=0;" edge="1" parent="1" source="BKir_ti3wIF976m73uB4-172">
          <mxGeometry width="50" height="50" relative="1" as="geometry">
            <mxPoint x="775" y="-93" as="sourcePoint" />
            <mxPoint x="910" y="-93" as="targetPoint" />
          </mxGeometry>
        </mxCell>
        <mxCell id="BKir_ti3wIF976m73uB4-176" value="&lt;b&gt;&lt;font style=&quot;font-size: 14px;&quot;&gt;Crs_ID&lt;/font&gt;&lt;/b&gt;" style="rounded=0;whiteSpace=wrap;html=1;" vertex="1" parent="1">
          <mxGeometry x="748" y="-30" width="90" height="30" as="geometry" />
        </mxCell>
        <mxCell id="BKir_ti3wIF976m73uB4-177" value="&lt;b&gt;&lt;font style=&quot;font-size: 14px;&quot;&gt;Crs_Name&lt;/font&gt;&lt;/b&gt;" style="rounded=0;whiteSpace=wrap;html=1;" vertex="1" parent="1">
          <mxGeometry x="948" y="-30" width="90" height="30" as="geometry" />
        </mxCell>
        <mxCell id="BKir_ti3wIF976m73uB4-178" value="Course" style="swimlane;fontStyle=1;childLayout=stackLayout;horizontal=1;startSize=20;fillColor=#B7272A;horizontalStack=0;resizeParent=1;resizeParentMax=0;resizeLast=0;collapsible=0;marginBottom=0;swimlaneFillColor=#ffffff;fontSize=14;fontColor=#FFFFFF;" vertex="1" parent="1">
          <mxGeometry x="748" y="-50" width="90" height="20" as="geometry" />
        </mxCell>
        <mxCell id="BKir_ti3wIF976m73uB4-179" value="&lt;b&gt;&lt;font style=&quot;font-size: 14px;&quot;&gt;Hours&lt;/font&gt;&lt;/b&gt;" style="rounded=0;whiteSpace=wrap;html=1;" vertex="1" parent="1">
          <mxGeometry x="1038" y="-30" width="90" height="30" as="geometry" />
        </mxCell>
        <mxCell id="BKir_ti3wIF976m73uB4-180" value="&lt;b&gt;&lt;font style=&quot;font-size: 14px;&quot;&gt;Topic_ID&lt;/font&gt;&lt;/b&gt;" style="rounded=0;whiteSpace=wrap;html=1;fillColor=#E6E6E6;" vertex="1" parent="1">
          <mxGeometry x="1128" y="-30" width="90" height="30" as="geometry" />
        </mxCell>
        <mxCell id="BKir_ti3wIF976m73uB4-181" value="&lt;b&gt;&lt;font style=&quot;font-size: 14px;&quot;&gt;Crs_Desc&lt;/font&gt;&lt;/b&gt;" style="rounded=0;whiteSpace=wrap;html=1;" vertex="1" parent="1">
          <mxGeometry x="838" y="-30" width="110" height="30" as="geometry" />
        </mxCell>
        <mxCell id="BKir_ti3wIF976m73uB4-182" value="" style="endArrow=none;dashed=1;html=1;rounded=0;" edge="1" parent="1">
          <mxGeometry width="50" height="50" relative="1" as="geometry">
            <mxPoint x="1140.5" y="-5" as="sourcePoint" />
            <mxPoint x="1205.5" y="-5" as="targetPoint" />
          </mxGeometry>
        </mxCell>
        <mxCell id="BKir_ti3wIF976m73uB4-183" value="&lt;b&gt;&lt;font style=&quot;font-size: 14px;&quot;&gt;Crtf_ID&lt;/font&gt;&lt;/b&gt;" style="rounded=0;whiteSpace=wrap;html=1;" vertex="1" parent="1">
          <mxGeometry x="79" y="1082" width="141" height="30" as="geometry" />
        </mxCell>
        <mxCell id="BKir_ti3wIF976m73uB4-184" value="Certificate" style="swimlane;fontStyle=1;childLayout=stackLayout;horizontal=1;startSize=20;fillColor=#B7272A;horizontalStack=0;resizeParent=1;resizeParentMax=0;resizeLast=0;collapsible=0;marginBottom=0;swimlaneFillColor=#ffffff;fontSize=14;fontColor=#FFFFFF;" vertex="1" parent="1">
          <mxGeometry x="79" y="1062" width="138" height="20" as="geometry" />
        </mxCell>
        <mxCell id="BKir_ti3wIF976m73uB4-185" value="&lt;span style=&quot;font-size: 14px;&quot;&gt;&lt;b&gt;Crtf_Name&lt;/b&gt;&lt;/span&gt;" style="rounded=0;whiteSpace=wrap;html=1;" vertex="1" parent="1">
          <mxGeometry x="216" y="1082" width="141" height="30" as="geometry" />
        </mxCell>
        <mxCell id="BKir_ti3wIF976m73uB4-186" value="" style="endArrow=none;html=1;rounded=0;" edge="1" parent="1">
          <mxGeometry width="50" height="50" relative="1" as="geometry">
            <mxPoint x="94" y="1108" as="sourcePoint" />
            <mxPoint x="168" y="1107" as="targetPoint" />
          </mxGeometry>
        </mxCell>
        <mxCell id="BKir_ti3wIF976m73uB4-187" value="&lt;b&gt;&lt;font style=&quot;font-size: 14px;&quot;&gt;Field&lt;/font&gt;&lt;/b&gt;" style="rounded=0;whiteSpace=wrap;html=1;" vertex="1" parent="1">
          <mxGeometry x="357" y="1082" width="90" height="30" as="geometry" />
        </mxCell>
        <mxCell id="BKir_ti3wIF976m73uB4-188" value="&lt;b&gt;&lt;font style=&quot;font-size: 14px;&quot;&gt;Provider&lt;/font&gt;&lt;/b&gt;" style="rounded=0;whiteSpace=wrap;html=1;" vertex="1" parent="1">
          <mxGeometry x="447" y="1082" width="90" height="30" as="geometry" />
        </mxCell>
        <mxCell id="BKir_ti3wIF976m73uB4-189" value="&lt;b&gt;&lt;font style=&quot;font-size: 14px;&quot;&gt;Crtf_URL&lt;/font&gt;&lt;/b&gt;" style="rounded=0;whiteSpace=wrap;html=1;" vertex="1" parent="1">
          <mxGeometry x="537" y="1082" width="90" height="30" as="geometry" />
        </mxCell>
        <mxCell id="BKir_ti3wIF976m73uB4-190" value="&lt;b&gt;&lt;font style=&quot;font-size: 14px;&quot;&gt;Std_ID&lt;/font&gt;&lt;/b&gt;" style="rounded=0;whiteSpace=wrap;html=1;fillColor=#E6E6E6;" vertex="1" parent="1">
          <mxGeometry x="751" y="910" width="108" height="30" as="geometry" />
        </mxCell>
        <mxCell id="BKir_ti3wIF976m73uB4-191" value="Std_Company" style="swimlane;fontStyle=1;childLayout=stackLayout;horizontal=1;startSize=20;fillColor=#B7272A;horizontalStack=0;resizeParent=1;resizeParentMax=0;resizeLast=0;collapsible=0;marginBottom=0;swimlaneFillColor=#ffffff;fontSize=14;fontColor=#FFFFFF;" vertex="1" parent="1">
          <mxGeometry x="750.5" y="890" width="109" height="20" as="geometry" />
        </mxCell>
        <mxCell id="BKir_ti3wIF976m73uB4-192" value="&lt;span style=&quot;font-size: 14px;&quot;&gt;&lt;b&gt;Company_ID&lt;/b&gt;&lt;/span&gt;" style="rounded=0;whiteSpace=wrap;html=1;fillColor=#E6E6E6;" vertex="1" parent="1">
          <mxGeometry x="859" y="910" width="141" height="30" as="geometry" />
        </mxCell>
        <mxCell id="BKir_ti3wIF976m73uB4-194" value="&lt;b&gt;&lt;font style=&quot;font-size: 14px;&quot;&gt;Job_Role&lt;/font&gt;&lt;/b&gt;" style="rounded=0;whiteSpace=wrap;html=1;" vertex="1" parent="1">
          <mxGeometry x="1000" y="910" width="90" height="30" as="geometry" />
        </mxCell>
        <mxCell id="BKir_ti3wIF976m73uB4-195" value="&lt;b&gt;&lt;font style=&quot;font-size: 14px;&quot;&gt;Salary&lt;/font&gt;&lt;/b&gt;" style="rounded=0;whiteSpace=wrap;html=1;" vertex="1" parent="1">
          <mxGeometry x="1090" y="910" width="90" height="30" as="geometry" />
        </mxCell>
        <mxCell id="BKir_ti3wIF976m73uB4-196" value="&lt;b&gt;&lt;font style=&quot;font-size: 14px;&quot;&gt;Hire_Date&lt;/font&gt;&lt;/b&gt;" style="rounded=0;whiteSpace=wrap;html=1;" vertex="1" parent="1">
          <mxGeometry x="1180" y="910" width="90" height="30" as="geometry" />
        </mxCell>
        <mxCell id="BKir_ti3wIF976m73uB4-197" value="" style="endArrow=none;html=1;rounded=0;entryX=0.835;entryY=0.867;entryDx=0;entryDy=0;entryPerimeter=0;" edge="1" parent="1">
          <mxGeometry width="50" height="50" relative="1" as="geometry">
            <mxPoint x="892" y="935" as="sourcePoint" />
            <mxPoint x="967" y="935" as="targetPoint" />
          </mxGeometry>
        </mxCell>
        <mxCell id="BKir_ti3wIF976m73uB4-198" value="&lt;b&gt;&lt;font style=&quot;font-size: 14px;&quot;&gt;Std_ID&lt;/font&gt;&lt;/b&gt;" style="rounded=0;whiteSpace=wrap;html=1;fillColor=#E6E6E6;" vertex="1" parent="1">
          <mxGeometry x="751" y="1000" width="108" height="30" as="geometry" />
        </mxCell>
        <mxCell id="BKir_ti3wIF976m73uB4-199" value="Std_Freelance" style="swimlane;fontStyle=1;childLayout=stackLayout;horizontal=1;startSize=20;fillColor=#B7272A;horizontalStack=0;resizeParent=1;resizeParentMax=0;resizeLast=0;collapsible=0;marginBottom=0;swimlaneFillColor=#ffffff;fontSize=14;fontColor=#FFFFFF;" vertex="1" parent="1">
          <mxGeometry x="750" y="980" width="109" height="20" as="geometry" />
        </mxCell>
        <mxCell id="BKir_ti3wIF976m73uB4-200" value="&lt;span style=&quot;font-size: 14px;&quot;&gt;&lt;b&gt;Free_ID&lt;/b&gt;&lt;/span&gt;" style="rounded=0;whiteSpace=wrap;html=1;fillColor=#E6E6E6;" vertex="1" parent="1">
          <mxGeometry x="859" y="1000" width="141" height="30" as="geometry" />
        </mxCell>
        <mxCell id="BKir_ti3wIF976m73uB4-201" value="&lt;b&gt;&lt;font style=&quot;font-size: 14px;&quot;&gt;Detail&lt;/font&gt;&lt;/b&gt;" style="rounded=0;whiteSpace=wrap;html=1;" vertex="1" parent="1">
          <mxGeometry x="1000" y="1000" width="90" height="30" as="geometry" />
        </mxCell>
        <mxCell id="BKir_ti3wIF976m73uB4-202" value="&lt;b&gt;&lt;font style=&quot;font-size: 14px;&quot;&gt;Cost&lt;/font&gt;&lt;/b&gt;" style="rounded=0;whiteSpace=wrap;html=1;" vertex="1" parent="1">
          <mxGeometry x="1090" y="1000" width="90" height="30" as="geometry" />
        </mxCell>
        <mxCell id="BKir_ti3wIF976m73uB4-203" value="&lt;b&gt;&lt;font style=&quot;font-size: 14px;&quot;&gt;Date&lt;/font&gt;&lt;/b&gt;" style="rounded=0;whiteSpace=wrap;html=1;" vertex="1" parent="1">
          <mxGeometry x="1180" y="1000" width="90" height="30" as="geometry" />
        </mxCell>
        <mxCell id="BKir_ti3wIF976m73uB4-204" value="" style="endArrow=none;html=1;rounded=0;entryX=0.835;entryY=0.867;entryDx=0;entryDy=0;entryPerimeter=0;" edge="1" parent="1">
          <mxGeometry width="50" height="50" relative="1" as="geometry">
            <mxPoint x="892" y="1025" as="sourcePoint" />
            <mxPoint x="967" y="1025" as="targetPoint" />
          </mxGeometry>
        </mxCell>
        <mxCell id="BKir_ti3wIF976m73uB4-205" value="&lt;b&gt;&lt;font style=&quot;font-size: 14px;&quot;&gt;Std_ID&lt;/font&gt;&lt;/b&gt;" style="rounded=0;whiteSpace=wrap;html=1;fillColor=#E6E6E6;" vertex="1" parent="1">
          <mxGeometry x="751" y="1082" width="108" height="30" as="geometry" />
        </mxCell>
        <mxCell id="BKir_ti3wIF976m73uB4-206" value="Std_Crtf" style="swimlane;fontStyle=1;childLayout=stackLayout;horizontal=1;startSize=20;fillColor=#B7272A;horizontalStack=0;resizeParent=1;resizeParentMax=0;resizeLast=0;collapsible=0;marginBottom=0;swimlaneFillColor=#ffffff;fontSize=14;fontColor=#FFFFFF;" vertex="1" parent="1">
          <mxGeometry x="750" y="1062" width="109" height="20" as="geometry" />
        </mxCell>
        <mxCell id="BKir_ti3wIF976m73uB4-207" value="&lt;span style=&quot;font-size: 14px;&quot;&gt;&lt;b&gt;Crtf_ID&lt;/b&gt;&lt;/span&gt;" style="rounded=0;whiteSpace=wrap;html=1;fillColor=#E6E6E6;" vertex="1" parent="1">
          <mxGeometry x="859" y="1082" width="141" height="30" as="geometry" />
        </mxCell>
        <mxCell id="BKir_ti3wIF976m73uB4-208" value="&lt;b&gt;&lt;font style=&quot;font-size: 14px;&quot;&gt;Date&lt;/font&gt;&lt;/b&gt;" style="rounded=0;whiteSpace=wrap;html=1;" vertex="1" parent="1">
          <mxGeometry x="1000" y="1082" width="90" height="30" as="geometry" />
        </mxCell>
        <mxCell id="BKir_ti3wIF976m73uB4-209" value="" style="endArrow=none;html=1;rounded=0;entryX=0.835;entryY=0.867;entryDx=0;entryDy=0;entryPerimeter=0;" edge="1" parent="1">
          <mxGeometry width="50" height="50" relative="1" as="geometry">
            <mxPoint x="892" y="1107" as="sourcePoint" />
            <mxPoint x="967" y="1107" as="targetPoint" />
          </mxGeometry>
        </mxCell>
        <mxCell id="BKir_ti3wIF976m73uB4-210" value="" style="edgeStyle=elbowEdgeStyle;elbow=vertical;endArrow=classic;html=1;curved=0;rounded=0;endSize=8;startSize=8;entryX=0;entryY=0.5;entryDx=0;entryDy=0;exitX=0;exitY=0.5;exitDx=0;exitDy=0;" edge="1" parent="1" source="BKir_ti3wIF976m73uB4-2" target="w7FsaGLrVxEDbODlspXQ-41">
          <mxGeometry width="50" height="50" relative="1" as="geometry">
            <mxPoint x="60" y="-160" as="sourcePoint" />
            <mxPoint x="50" y="-437.5" as="targetPoint" />
            <Array as="points">
              <mxPoint x="60" y="-300" />
              <mxPoint x="10" y="-445" />
              <mxPoint x="395" y="-160" />
            </Array>
          </mxGeometry>
        </mxCell>
        <mxCell id="BKir_ti3wIF976m73uB4-212" value="" style="edgeStyle=elbowEdgeStyle;elbow=vertical;endArrow=classic;html=1;curved=0;rounded=0;endSize=8;startSize=8;entryX=0;entryY=0.25;entryDx=0;entryDy=0;exitX=0;exitY=0.25;exitDx=0;exitDy=0;" edge="1" parent="1" source="BKir_ti3wIF976m73uB4-13" target="w7FsaGLrVxEDbODlspXQ-41">
          <mxGeometry width="50" height="50" relative="1" as="geometry">
            <mxPoint x="50" y="-140" as="sourcePoint" />
            <mxPoint x="40" y="-466" as="targetPoint" />
            <Array as="points">
              <mxPoint x="50" y="-80" />
              <mxPoint x="-20" y="-466" />
              <mxPoint x="365" y="-181" />
            </Array>
          </mxGeometry>
        </mxCell>
        <mxCell id="BKir_ti3wIF976m73uB4-216" value="" style="endArrow=classic;html=1;rounded=0;" edge="1" parent="1">
          <mxGeometry width="50" height="50" relative="1" as="geometry">
            <mxPoint x="30" y="-230" as="sourcePoint" />
            <mxPoint x="80" y="-230" as="targetPoint" />
          </mxGeometry>
        </mxCell>
        <mxCell id="BKir_ti3wIF976m73uB4-217" value="" style="endArrow=none;html=1;rounded=0;" edge="1" parent="1">
          <mxGeometry width="50" height="50" relative="1" as="geometry">
            <mxPoint x="30" y="770" as="sourcePoint" />
            <mxPoint x="30" y="-230" as="targetPoint" />
          </mxGeometry>
        </mxCell>
        <mxCell id="BKir_ti3wIF976m73uB4-218" value="" style="endArrow=none;html=1;rounded=0;" edge="1" parent="1">
          <mxGeometry width="50" height="50" relative="1" as="geometry">
            <mxPoint x="30" y="770" as="sourcePoint" />
            <mxPoint x="414" y="770" as="targetPoint" />
          </mxGeometry>
        </mxCell>
        <mxCell id="BKir_ti3wIF976m73uB4-219" value="" style="endArrow=none;html=1;rounded=0;entryX=0.5;entryY=1;entryDx=0;entryDy=0;" edge="1" parent="1" target="BKir_ti3wIF976m73uB4-150">
          <mxGeometry width="50" height="50" relative="1" as="geometry">
            <mxPoint x="414" y="770" as="sourcePoint" />
            <mxPoint x="417" y="760" as="targetPoint" />
          </mxGeometry>
        </mxCell>
        <mxCell id="BKir_ti3wIF976m73uB4-223" value="" style="edgeStyle=elbowEdgeStyle;elbow=horizontal;endArrow=classic;html=1;curved=0;rounded=0;endSize=8;startSize=8;exitX=0;exitY=0.5;exitDx=0;exitDy=0;" edge="1" parent="1" source="BKir_ti3wIF976m73uB4-43">
          <mxGeometry width="50" height="50" relative="1" as="geometry">
            <mxPoint x="62" y="36" as="sourcePoint" />
            <mxPoint x="82" y="-14" as="targetPoint" />
            <Array as="points">
              <mxPoint x="40" y="30" />
            </Array>
          </mxGeometry>
        </mxCell>
        <mxCell id="BKir_ti3wIF976m73uB4-224" value="" style="edgeStyle=elbowEdgeStyle;elbow=horizontal;endArrow=classic;html=1;curved=0;rounded=0;endSize=8;startSize=8;entryX=0;entryY=1;entryDx=0;entryDy=0;" edge="1" parent="1" target="BKir_ti3wIF976m73uB4-19">
          <mxGeometry width="50" height="50" relative="1" as="geometry">
            <mxPoint x="350" y="420" as="sourcePoint" />
            <mxPoint x="80" y="80" as="targetPoint" />
            <Array as="points">
              <mxPoint x="50" y="210" />
            </Array>
          </mxGeometry>
        </mxCell>
        <mxCell id="BKir_ti3wIF976m73uB4-225" value="" style="endArrow=none;html=1;rounded=0;" edge="1" parent="1">
          <mxGeometry width="50" height="50" relative="1" as="geometry">
            <mxPoint x="350" y="450" as="sourcePoint" />
            <mxPoint x="350" y="420" as="targetPoint" />
          </mxGeometry>
        </mxCell>
        <mxCell id="BKir_ti3wIF976m73uB4-227" value="" style="edgeStyle=elbowEdgeStyle;elbow=horizontal;endArrow=classic;html=1;curved=0;rounded=0;endSize=8;startSize=8;exitX=0.5;exitY=1;exitDx=0;exitDy=0;entryX=0.631;entryY=1.027;entryDx=0;entryDy=0;entryPerimeter=0;" edge="1" parent="1" source="BKir_ti3wIF976m73uB4-17" target="BKir_ti3wIF976m73uB4-19">
          <mxGeometry width="50" height="50" relative="1" as="geometry">
            <mxPoint x="392" y="-20" as="sourcePoint" />
            <mxPoint x="130" y="20" as="targetPoint" />
            <Array as="points">
              <mxPoint x="400" y="20" />
            </Array>
          </mxGeometry>
        </mxCell>
        <mxCell id="BKir_ti3wIF976m73uB4-228" value="" style="edgeStyle=elbowEdgeStyle;elbow=horizontal;endArrow=classic;html=1;curved=0;rounded=0;endSize=8;startSize=8;entryX=0;entryY=0.5;entryDx=0;entryDy=0;" edge="1" parent="1" target="BKir_ti3wIF976m73uB4-13">
          <mxGeometry width="50" height="50" relative="1" as="geometry">
            <mxPoint x="230" y="100" as="sourcePoint" />
            <mxPoint x="20" y="-80" as="targetPoint" />
            <Array as="points">
              <mxPoint x="20" y="100" />
              <mxPoint x="30" y="10" />
            </Array>
          </mxGeometry>
        </mxCell>
        <mxCell id="BKir_ti3wIF976m73uB4-230" value="" style="endArrow=none;html=1;rounded=0;" edge="1" parent="1">
          <mxGeometry width="50" height="50" relative="1" as="geometry">
            <mxPoint x="230" y="100" as="sourcePoint" />
            <mxPoint x="230" y="80" as="targetPoint" />
          </mxGeometry>
        </mxCell>
        <mxCell id="BKir_ti3wIF976m73uB4-232" value="" style="edgeStyle=elbowEdgeStyle;elbow=vertical;endArrow=classic;html=1;curved=0;rounded=0;endSize=8;startSize=8;entryX=0.662;entryY=0.893;entryDx=0;entryDy=0;entryPerimeter=0;exitX=0.151;exitY=-0.04;exitDx=0;exitDy=0;exitPerimeter=0;" edge="1" parent="1" source="BKir_ti3wIF976m73uB4-64">
          <mxGeometry width="50" height="50" relative="1" as="geometry">
            <mxPoint x="740" y="140" as="sourcePoint" />
            <mxPoint x="135.99999999999991" y="-69.60000000000004" as="targetPoint" />
            <Array as="points">
              <mxPoint x="730" y="-50" />
              <mxPoint x="440" y="-60" />
            </Array>
          </mxGeometry>
        </mxCell>
        <mxCell id="BKir_ti3wIF976m73uB4-233" value="" style="edgeStyle=elbowEdgeStyle;elbow=horizontal;endArrow=classic;html=1;curved=0;rounded=0;endSize=8;startSize=8;entryX=0;entryY=0.75;entryDx=0;entryDy=0;" edge="1" parent="1" target="BKir_ti3wIF976m73uB4-176">
          <mxGeometry width="50" height="50" relative="1" as="geometry">
            <mxPoint x="682" y="150" as="sourcePoint" />
            <mxPoint x="707" y="56" as="targetPoint" />
            <Array as="points">
              <mxPoint x="720" y="-30" />
              <mxPoint x="700" y="-20" />
              <mxPoint x="680" y="70" />
            </Array>
          </mxGeometry>
        </mxCell>
        <mxCell id="BKir_ti3wIF976m73uB4-234" value="" style="endArrow=classic;html=1;rounded=0;entryX=0.5;entryY=0;entryDx=0;entryDy=0;" edge="1" parent="1" target="BKir_ti3wIF976m73uB4-178">
          <mxGeometry width="50" height="50" relative="1" as="geometry">
            <mxPoint x="793" y="-100" as="sourcePoint" />
            <mxPoint x="800" y="-90" as="targetPoint" />
          </mxGeometry>
        </mxCell>
        <mxCell id="BKir_ti3wIF976m73uB4-235" value="" style="edgeStyle=segmentEdgeStyle;endArrow=classic;html=1;curved=0;rounded=0;endSize=8;startSize=8;" edge="1" parent="1">
          <mxGeometry width="50" height="50" relative="1" as="geometry">
            <mxPoint x="870" y="-90" as="sourcePoint" />
            <mxPoint x="150" y="-70" as="targetPoint" />
            <Array as="points">
              <mxPoint x="870" y="-60" />
              <mxPoint x="149" y="-60" />
            </Array>
          </mxGeometry>
        </mxCell>
        <mxCell id="BKir_ti3wIF976m73uB4-238" value="" style="shape=partialRectangle;whiteSpace=wrap;html=1;bottom=1;right=1;left=1;top=0;fillColor=none;routingCenterX=-0.5;direction=north;" vertex="1" parent="1">
          <mxGeometry x="800" y="30" width="140" height="260" as="geometry" />
        </mxCell>
        <mxCell id="BKir_ti3wIF976m73uB4-242" value="" style="endArrow=classic;html=1;rounded=0;entryX=0.58;entryY=0.947;entryDx=0;entryDy=0;exitX=1;exitY=0;exitDx=0;exitDy=0;entryPerimeter=0;" edge="1" parent="1" source="BKir_ti3wIF976m73uB4-238" target="BKir_ti3wIF976m73uB4-176">
          <mxGeometry width="50" height="50" relative="1" as="geometry">
            <mxPoint x="816" y="30" as="sourcePoint" />
            <mxPoint x="841" as="targetPoint" />
          </mxGeometry>
        </mxCell>
        <mxCell id="BKir_ti3wIF976m73uB4-243" value="" style="endArrow=none;html=1;rounded=0;exitX=0.29;exitY=0.06;exitDx=0;exitDy=0;exitPerimeter=0;" edge="1" parent="1" source="BKir_ti3wIF976m73uB4-73">
          <mxGeometry width="50" height="50" relative="1" as="geometry">
            <mxPoint x="751" y="300" as="sourcePoint" />
            <mxPoint x="800" y="290" as="targetPoint" />
          </mxGeometry>
        </mxCell>
        <mxCell id="BKir_ti3wIF976m73uB4-254" value="" style="endArrow=classic;html=1;rounded=0;" edge="1" parent="1">
          <mxGeometry width="50" height="50" relative="1" as="geometry">
            <mxPoint x="130" y="310" as="sourcePoint" />
            <mxPoint x="129" y="280" as="targetPoint" />
          </mxGeometry>
        </mxCell>
        <mxCell id="BKir_ti3wIF976m73uB4-258" value="" style="endArrow=none;html=1;rounded=0;" edge="1" parent="1">
          <mxGeometry width="50" height="50" relative="1" as="geometry">
            <mxPoint x="130" y="310" as="sourcePoint" />
            <mxPoint x="690" y="310" as="targetPoint" />
          </mxGeometry>
        </mxCell>
        <mxCell id="BKir_ti3wIF976m73uB4-259" value="" style="endArrow=none;html=1;rounded=0;" edge="1" parent="1">
          <mxGeometry width="50" height="50" relative="1" as="geometry">
            <mxPoint x="690" y="380" as="sourcePoint" />
            <mxPoint x="690" y="310" as="targetPoint" />
          </mxGeometry>
        </mxCell>
        <mxCell id="BKir_ti3wIF976m73uB4-260" value="" style="endArrow=none;html=1;rounded=0;" edge="1" parent="1">
          <mxGeometry width="50" height="50" relative="1" as="geometry">
            <mxPoint x="890" y="380" as="sourcePoint" />
            <mxPoint x="690" y="380" as="targetPoint" />
          </mxGeometry>
        </mxCell>
        <mxCell id="BKir_ti3wIF976m73uB4-262" value="" style="endArrow=none;html=1;rounded=0;" edge="1" parent="1">
          <mxGeometry width="50" height="50" relative="1" as="geometry">
            <mxPoint x="890" y="380" as="sourcePoint" />
            <mxPoint x="890" y="370" as="targetPoint" />
          </mxGeometry>
        </mxCell>
        <mxCell id="BKir_ti3wIF976m73uB4-266" value="" style="edgeStyle=elbowEdgeStyle;elbow=vertical;endArrow=classic;html=1;curved=0;rounded=0;endSize=8;startSize=8;exitX=0;exitY=0;exitDx=0;exitDy=0;" edge="1" parent="1" source="BKir_ti3wIF976m73uB4-101">
          <mxGeometry width="50" height="50" relative="1" as="geometry">
            <mxPoint x="60" y="330" as="sourcePoint" />
            <mxPoint x="110" y="280" as="targetPoint" />
            <Array as="points">
              <mxPoint x="90" y="300" />
              <mxPoint x="80" y="300" />
            </Array>
          </mxGeometry>
        </mxCell>
        <mxCell id="BKir_ti3wIF976m73uB4-268" value="" style="edgeStyle=segmentEdgeStyle;endArrow=classic;html=1;curved=0;rounded=0;endSize=8;startSize=8;" edge="1" parent="1">
          <mxGeometry width="50" height="50" relative="1" as="geometry">
            <mxPoint x="780" y="480" as="sourcePoint" />
            <mxPoint x="110" y="480" as="targetPoint" />
            <Array as="points">
              <mxPoint x="780" y="520" />
              <mxPoint x="110" y="520" />
              <mxPoint x="110" y="480" />
            </Array>
          </mxGeometry>
        </mxCell>
        <mxCell id="BKir_ti3wIF976m73uB4-274" value="" style="endArrow=none;html=1;rounded=0;" edge="1" parent="1">
          <mxGeometry width="50" height="50" relative="1" as="geometry">
            <mxPoint x="94" y="845" as="sourcePoint" />
            <mxPoint x="154" y="845" as="targetPoint" />
          </mxGeometry>
        </mxCell>
        <mxCell id="BKir_ti3wIF976m73uB4-275" value="" style="endArrow=none;html=1;rounded=0;" edge="1" parent="1">
          <mxGeometry width="50" height="50" relative="1" as="geometry">
            <mxPoint x="184" y="844" as="sourcePoint" />
            <mxPoint x="244" y="844" as="targetPoint" />
          </mxGeometry>
        </mxCell>
        <mxCell id="BKir_ti3wIF976m73uB4-276" value="" style="endArrow=none;html=1;rounded=0;" edge="1" parent="1">
          <mxGeometry width="50" height="50" relative="1" as="geometry">
            <mxPoint x="274" y="844" as="sourcePoint" />
            <mxPoint x="334" y="844" as="targetPoint" />
          </mxGeometry>
        </mxCell>
        <mxCell id="BKir_ti3wIF976m73uB4-277" value="" style="edgeStyle=segmentEdgeStyle;endArrow=classic;html=1;curved=0;rounded=0;endSize=8;startSize=8;entryX=0.5;entryY=0;entryDx=0;entryDy=0;" edge="1" parent="1" target="BKir_ti3wIF976m73uB4-163">
          <mxGeometry width="50" height="50" relative="1" as="geometry">
            <mxPoint x="940" y="870" as="sourcePoint" />
            <mxPoint x="550" y="890" as="targetPoint" />
          </mxGeometry>
        </mxCell>
        <mxCell id="BKir_ti3wIF976m73uB4-278" value="" style="endArrow=none;html=1;rounded=0;exitX=0.57;exitY=-0.067;exitDx=0;exitDy=0;exitPerimeter=0;" edge="1" parent="1" source="BKir_ti3wIF976m73uB4-192">
          <mxGeometry width="50" height="50" relative="1" as="geometry">
            <mxPoint x="940" y="890" as="sourcePoint" />
            <mxPoint x="940" y="870" as="targetPoint" />
          </mxGeometry>
        </mxCell>
        <mxCell id="BKir_ti3wIF976m73uB4-279" value="" style="edgeStyle=segmentEdgeStyle;endArrow=classic;html=1;curved=0;rounded=0;endSize=8;startSize=8;entryX=0.5;entryY=0;entryDx=0;entryDy=0;" edge="1" parent="1">
          <mxGeometry width="50" height="50" relative="1" as="geometry">
            <mxPoint x="920" y="970" as="sourcePoint" />
            <mxPoint x="129" y="980" as="targetPoint" />
            <Array as="points">
              <mxPoint x="789" y="970" />
              <mxPoint x="129" y="970" />
            </Array>
          </mxGeometry>
        </mxCell>
        <mxCell id="BKir_ti3wIF976m73uB4-280" value="" style="endArrow=none;html=1;rounded=0;entryX=0.434;entryY=-0.053;entryDx=0;entryDy=0;entryPerimeter=0;" edge="1" parent="1" target="BKir_ti3wIF976m73uB4-200">
          <mxGeometry width="50" height="50" relative="1" as="geometry">
            <mxPoint x="920" y="980" as="sourcePoint" />
            <mxPoint x="789" y="970" as="targetPoint" />
            <Array as="points">
              <mxPoint x="920" y="970" />
            </Array>
          </mxGeometry>
        </mxCell>
        <mxCell id="BKir_ti3wIF976m73uB4-281" value="" style="edgeStyle=segmentEdgeStyle;endArrow=classic;html=1;curved=0;rounded=0;endSize=8;startSize=8;entryX=0.5;entryY=0;entryDx=0;entryDy=0;" edge="1" parent="1">
          <mxGeometry width="50" height="50" relative="1" as="geometry">
            <mxPoint x="940" y="1052" as="sourcePoint" />
            <mxPoint x="120" y="1062" as="targetPoint" />
            <Array as="points">
              <mxPoint x="780" y="1052" />
              <mxPoint x="120" y="1052" />
            </Array>
          </mxGeometry>
        </mxCell>
        <mxCell id="BKir_ti3wIF976m73uB4-286" value="" style="edgeStyle=elbowEdgeStyle;elbow=vertical;endArrow=classic;html=1;curved=0;rounded=0;endSize=8;startSize=8;" edge="1" parent="1">
          <mxGeometry width="50" height="50" relative="1" as="geometry">
            <mxPoint x="230" y="580" as="sourcePoint" />
            <mxPoint x="810" y="580" as="targetPoint" />
            <Array as="points">
              <mxPoint x="660" y="600" />
            </Array>
          </mxGeometry>
        </mxCell>
        <mxCell id="BKir_ti3wIF976m73uB4-287" value="" style="edgeStyle=elbowEdgeStyle;elbow=horizontal;endArrow=classic;html=1;curved=0;rounded=0;endSize=8;startSize=8;exitX=0;exitY=0.5;exitDx=0;exitDy=0;" edge="1" parent="1" source="BKir_ti3wIF976m73uB4-153">
          <mxGeometry width="50" height="50" relative="1" as="geometry">
            <mxPoint x="40" y="840" as="sourcePoint" />
            <mxPoint x="79" y="650" as="targetPoint" />
            <Array as="points">
              <mxPoint x="50" y="750" />
            </Array>
          </mxGeometry>
        </mxCell>
        <mxCell id="BKir_ti3wIF976m73uB4-288" value="" style="edgeStyle=elbowEdgeStyle;elbow=horizontal;endArrow=classic;html=1;curved=0;rounded=0;endSize=8;startSize=8;entryX=0;entryY=0.25;entryDx=0;entryDy=0;" edge="1" parent="1" target="BKir_ti3wIF976m73uB4-144">
          <mxGeometry width="50" height="50" relative="1" as="geometry">
            <mxPoint x="230" y="860" as="sourcePoint" />
            <mxPoint x="80" y="630" as="targetPoint" />
            <Array as="points">
              <mxPoint x="21" y="735" />
            </Array>
          </mxGeometry>
        </mxCell>
        <mxCell id="BKir_ti3wIF976m73uB4-289" value="" style="endArrow=none;html=1;rounded=0;" edge="1" parent="1">
          <mxGeometry width="50" height="50" relative="1" as="geometry">
            <mxPoint x="230" y="860" as="sourcePoint" />
            <mxPoint x="230" y="850" as="targetPoint" />
          </mxGeometry>
        </mxCell>
        <mxCell id="BKir_ti3wIF976m73uB4-298" value="" style="endArrow=none;html=1;rounded=0;" edge="1" parent="1">
          <mxGeometry width="50" height="50" relative="1" as="geometry">
            <mxPoint x="120" y="200" as="sourcePoint" />
            <mxPoint x="680" y="200" as="targetPoint" />
          </mxGeometry>
        </mxCell>
        <mxCell id="BKir_ti3wIF976m73uB4-299" value="" style="endArrow=none;html=1;rounded=0;" edge="1" parent="1">
          <mxGeometry width="50" height="50" relative="1" as="geometry">
            <mxPoint x="680" y="510" as="sourcePoint" />
            <mxPoint x="680" y="200" as="targetPoint" />
          </mxGeometry>
        </mxCell>
        <mxCell id="BKir_ti3wIF976m73uB4-300" value="" style="endArrow=none;html=1;rounded=0;" edge="1" parent="1">
          <mxGeometry width="50" height="50" relative="1" as="geometry">
            <mxPoint x="880" y="510" as="sourcePoint" />
            <mxPoint x="680" y="510" as="targetPoint" />
          </mxGeometry>
        </mxCell>
        <mxCell id="BKir_ti3wIF976m73uB4-301" value="" style="endArrow=classic;html=1;rounded=0;" edge="1" parent="1">
          <mxGeometry width="50" height="50" relative="1" as="geometry">
            <mxPoint x="120" y="200" as="sourcePoint" />
            <mxPoint x="120" y="180" as="targetPoint" />
          </mxGeometry>
        </mxCell>
        <mxCell id="BKir_ti3wIF976m73uB4-302" value="" style="endArrow=none;html=1;rounded=0;exitX=0.716;exitY=0.064;exitDx=0;exitDy=0;exitPerimeter=0;" edge="1" parent="1" source="BKir_ti3wIF976m73uB4-85">
          <mxGeometry width="50" height="50" relative="1" as="geometry">
            <mxPoint x="830" y="560" as="sourcePoint" />
            <mxPoint x="880" y="510" as="targetPoint" />
          </mxGeometry>
        </mxCell>
        <mxCell id="BKir_ti3wIF976m73uB4-303" value="" style="edgeStyle=elbowEdgeStyle;elbow=horizontal;endArrow=classic;html=1;curved=0;rounded=0;endSize=8;startSize=8;exitX=0;exitY=0.5;exitDx=0;exitDy=0;entryX=0;entryY=0.75;entryDx=0;entryDy=0;" edge="1" parent="1" target="BKir_ti3wIF976m73uB4-2">
          <mxGeometry width="50" height="50" relative="1" as="geometry">
            <mxPoint x="82" y="565" as="sourcePoint" />
            <mxPoint x="82" y="380" as="targetPoint" />
            <Array as="points">
              <mxPoint x="10" y="200" />
            </Array>
          </mxGeometry>
        </mxCell>
        <mxCell id="BKir_ti3wIF976m73uB4-306" value="" style="endArrow=none;html=1;rounded=0;" edge="1" parent="1">
          <mxGeometry width="50" height="50" relative="1" as="geometry">
            <mxPoint x="-30" y="950" as="sourcePoint" />
            <mxPoint x="800" y="950" as="targetPoint" />
          </mxGeometry>
        </mxCell>
        <mxCell id="BKir_ti3wIF976m73uB4-307" value="" style="endArrow=none;html=1;rounded=0;" edge="1" parent="1">
          <mxGeometry width="50" height="50" relative="1" as="geometry">
            <mxPoint x="-30" y="950" as="sourcePoint" />
            <mxPoint x="-30" y="-160" as="targetPoint" />
          </mxGeometry>
        </mxCell>
        <mxCell id="BKir_ti3wIF976m73uB4-308" value="" style="endArrow=none;html=1;rounded=0;" edge="1" parent="1">
          <mxGeometry width="50" height="50" relative="1" as="geometry">
            <mxPoint x="800" y="950" as="sourcePoint" />
            <mxPoint x="800" y="940" as="targetPoint" />
          </mxGeometry>
        </mxCell>
        <mxCell id="BKir_ti3wIF976m73uB4-309" value="" style="endArrow=classic;html=1;rounded=0;entryX=0;entryY=0.5;entryDx=0;entryDy=0;" edge="1" parent="1">
          <mxGeometry width="50" height="50" relative="1" as="geometry">
            <mxPoint x="-30" y="-159" as="sourcePoint" />
            <mxPoint x="82" y="-159.5" as="targetPoint" />
          </mxGeometry>
        </mxCell>
        <mxCell id="BKir_ti3wIF976m73uB4-310" value="" style="endArrow=none;html=1;rounded=0;" edge="1" parent="1">
          <mxGeometry width="50" height="50" relative="1" as="geometry">
            <mxPoint x="-50" y="1040" as="sourcePoint" />
            <mxPoint x="780" y="1040" as="targetPoint" />
          </mxGeometry>
        </mxCell>
        <mxCell id="BKir_ti3wIF976m73uB4-311" value="" style="endArrow=none;html=1;rounded=0;" edge="1" parent="1">
          <mxGeometry width="50" height="50" relative="1" as="geometry">
            <mxPoint x="780" y="1040" as="sourcePoint" />
            <mxPoint x="780" y="1030" as="targetPoint" />
          </mxGeometry>
        </mxCell>
        <mxCell id="BKir_ti3wIF976m73uB4-312" value="" style="endArrow=none;html=1;rounded=0;" edge="1" parent="1">
          <mxGeometry width="50" height="50" relative="1" as="geometry">
            <mxPoint x="-50" y="1040" as="sourcePoint" />
            <mxPoint x="-50" y="-170" as="targetPoint" />
          </mxGeometry>
        </mxCell>
        <mxCell id="BKir_ti3wIF976m73uB4-313" value="" style="endArrow=classic;html=1;rounded=0;entryX=0;entryY=0.5;entryDx=0;entryDy=0;" edge="1" parent="1">
          <mxGeometry width="50" height="50" relative="1" as="geometry">
            <mxPoint x="-50" y="-170" as="sourcePoint" />
            <mxPoint x="81" y="-170" as="targetPoint" />
          </mxGeometry>
        </mxCell>
        <mxCell id="BKir_ti3wIF976m73uB4-314" value="" style="endArrow=none;html=1;rounded=0;" edge="1" parent="1">
          <mxGeometry width="50" height="50" relative="1" as="geometry">
            <mxPoint x="-90" y="1120" as="sourcePoint" />
            <mxPoint x="799.5" y="1122" as="targetPoint" />
          </mxGeometry>
        </mxCell>
        <mxCell id="BKir_ti3wIF976m73uB4-315" value="" style="endArrow=none;html=1;rounded=0;" edge="1" parent="1">
          <mxGeometry width="50" height="50" relative="1" as="geometry">
            <mxPoint x="799.5" y="1122" as="sourcePoint" />
            <mxPoint x="799.5" y="1112" as="targetPoint" />
          </mxGeometry>
        </mxCell>
        <mxCell id="BKir_ti3wIF976m73uB4-316" value="" style="endArrow=none;html=1;rounded=0;" edge="1" parent="1">
          <mxGeometry width="50" height="50" relative="1" as="geometry">
            <mxPoint x="-90" y="1120" as="sourcePoint" />
            <mxPoint x="-90" y="-180" as="targetPoint" />
          </mxGeometry>
        </mxCell>
        <mxCell id="BKir_ti3wIF976m73uB4-318" value="" style="endArrow=classic;html=1;rounded=0;entryX=0;entryY=0.5;entryDx=0;entryDy=0;" edge="1" parent="1" target="BKir_ti3wIF976m73uB4-5">
          <mxGeometry width="50" height="50" relative="1" as="geometry">
            <mxPoint x="-90" y="-180.5" as="sourcePoint" />
            <mxPoint x="41" y="-180.5" as="targetPoint" />
          </mxGeometry>
        </mxCell>
        <mxCell id="BKir_ti3wIF976m73uB4-331" value="" style="edgeStyle=elbowEdgeStyle;elbow=vertical;endArrow=classic;html=1;curved=0;rounded=0;endSize=8;startSize=8;entryX=0.782;entryY=-0.007;entryDx=0;entryDy=0;exitX=0.593;exitY=1.08;exitDx=0;exitDy=0;exitPerimeter=0;entryPerimeter=0;" edge="1" parent="1" source="BKir_ti3wIF976m73uB4-180" target="BKir_ti3wIF976m73uB4-238">
          <mxGeometry width="50" height="50" relative="1" as="geometry">
            <mxPoint x="1200" y="50" as="sourcePoint" />
            <mxPoint x="815" y="86" as="targetPoint" />
            <Array as="points">
              <mxPoint x="1010" y="110" />
            </Array>
          </mxGeometry>
        </mxCell>
        <mxCell id="BKir_ti3wIF976m73uB4-333" value="" style="endArrow=none;html=1;rounded=0;" edge="1" parent="1">
          <mxGeometry width="50" height="50" relative="1" as="geometry">
            <mxPoint x="410" y="-200" as="sourcePoint" />
            <mxPoint x="1290" y="-200" as="targetPoint" />
          </mxGeometry>
        </mxCell>
        <mxCell id="BKir_ti3wIF976m73uB4-334" value="" style="endArrow=none;html=1;rounded=0;" edge="1" parent="1">
          <mxGeometry width="50" height="50" relative="1" as="geometry">
            <mxPoint x="1290" y="410" as="sourcePoint" />
            <mxPoint x="1290" y="-200" as="targetPoint" />
          </mxGeometry>
        </mxCell>
        <mxCell id="BKir_ti3wIF976m73uB4-335" value="" style="endArrow=none;html=1;rounded=0;" edge="1" parent="1">
          <mxGeometry width="50" height="50" relative="1" as="geometry">
            <mxPoint x="411" y="-170" as="sourcePoint" />
            <mxPoint x="411" y="-200" as="targetPoint" />
          </mxGeometry>
        </mxCell>
        <mxCell id="BKir_ti3wIF976m73uB4-338" value="" style="edgeStyle=elbowEdgeStyle;elbow=vertical;endArrow=classic;html=1;curved=0;rounded=0;endSize=8;startSize=8;" edge="1" parent="1">
          <mxGeometry width="50" height="50" relative="1" as="geometry">
            <mxPoint x="1290" y="410" as="sourcePoint" />
            <mxPoint x="140" y="480" as="targetPoint" />
            <Array as="points">
              <mxPoint x="720" y="500" />
            </Array>
          </mxGeometry>
        </mxCell>
        <mxCell id="BKir_ti3wIF976m73uB4-339" value="" style="endArrow=none;html=1;rounded=0;" edge="1" parent="1">
          <mxGeometry width="50" height="50" relative="1" as="geometry">
            <mxPoint x="499" y="-190" as="sourcePoint" />
            <mxPoint x="1379" y="-190" as="targetPoint" />
          </mxGeometry>
        </mxCell>
        <mxCell id="BKir_ti3wIF976m73uB4-340" value="" style="endArrow=none;html=1;rounded=0;" edge="1" parent="1">
          <mxGeometry width="50" height="50" relative="1" as="geometry">
            <mxPoint x="1379" y="420" as="sourcePoint" />
            <mxPoint x="1379" y="-190" as="targetPoint" />
          </mxGeometry>
        </mxCell>
        <mxCell id="BKir_ti3wIF976m73uB4-341" value="" style="endArrow=none;html=1;rounded=0;" edge="1" parent="1">
          <mxGeometry width="50" height="50" relative="1" as="geometry">
            <mxPoint x="500" y="-170" as="sourcePoint" />
            <mxPoint x="500" y="-190" as="targetPoint" />
          </mxGeometry>
        </mxCell>
        <mxCell id="BKir_ti3wIF976m73uB4-342" value="" style="edgeStyle=elbowEdgeStyle;elbow=vertical;endArrow=classic;html=1;curved=0;rounded=0;endSize=8;startSize=8;" edge="1" parent="1">
          <mxGeometry width="50" height="50" relative="1" as="geometry">
            <mxPoint x="1379" y="420" as="sourcePoint" />
            <mxPoint x="120" y="670" as="targetPoint" />
            <Array as="points">
              <mxPoint x="750" y="690" />
            </Array>
          </mxGeometry>
        </mxCell>
        <mxCell id="BKir_ti3wIF976m73uB4-343" value="" style="endArrow=none;html=1;rounded=0;" edge="1" parent="1">
          <mxGeometry width="50" height="50" relative="1" as="geometry">
            <mxPoint x="569" y="-180" as="sourcePoint" />
            <mxPoint x="1449" y="-180" as="targetPoint" />
          </mxGeometry>
        </mxCell>
        <mxCell id="BKir_ti3wIF976m73uB4-344" value="" style="endArrow=none;html=1;rounded=0;" edge="1" parent="1">
          <mxGeometry width="50" height="50" relative="1" as="geometry">
            <mxPoint x="1449" y="420" as="sourcePoint" />
            <mxPoint x="1449" y="-180" as="targetPoint" />
          </mxGeometry>
        </mxCell>
        <mxCell id="BKir_ti3wIF976m73uB4-345" value="" style="endArrow=none;html=1;rounded=0;" edge="1" parent="1">
          <mxGeometry width="50" height="50" relative="1" as="geometry">
            <mxPoint x="570" y="-170" as="sourcePoint" />
            <mxPoint x="570" y="-180" as="targetPoint" />
          </mxGeometry>
        </mxCell>
        <mxCell id="BKir_ti3wIF976m73uB4-346" value="" style="edgeStyle=elbowEdgeStyle;elbow=vertical;endArrow=classic;html=1;curved=0;rounded=0;endSize=8;startSize=8;" edge="1" parent="1">
          <mxGeometry width="50" height="50" relative="1" as="geometry">
            <mxPoint x="1449" y="420" as="sourcePoint" />
            <mxPoint x="130" y="760" as="targetPoint" />
            <Array as="points">
              <mxPoint x="780" y="780" />
            </Array>
          </mxGeometry>
        </mxCell>
        <mxCell id="BKir_ti3wIF976m73uB4-347" value="" style="edgeStyle=elbowEdgeStyle;elbow=horizontal;endArrow=classic;html=1;curved=0;rounded=0;endSize=8;startSize=8;entryX=0;entryY=0.25;entryDx=0;entryDy=0;" edge="1" parent="1" target="BKir_ti3wIF976m73uB4-106">
          <mxGeometry width="50" height="50" relative="1" as="geometry">
            <mxPoint x="309" y="862" as="sourcePoint" />
            <mxPoint x="160" y="740" as="targetPoint" />
            <Array as="points">
              <mxPoint x="-20" y="780" />
            </Array>
          </mxGeometry>
        </mxCell>
        <mxCell id="BKir_ti3wIF976m73uB4-348" value="" style="endArrow=none;html=1;rounded=0;" edge="1" parent="1">
          <mxGeometry width="50" height="50" relative="1" as="geometry">
            <mxPoint x="309" y="862" as="sourcePoint" />
            <mxPoint x="309" y="852" as="targetPoint" />
          </mxGeometry>
        </mxCell>
        <mxCell id="BKir_ti3wIF976m73uB4-349" value="" style="endArrow=none;html=1;rounded=0;" edge="1" parent="1">
          <mxGeometry width="50" height="50" relative="1" as="geometry">
            <mxPoint x="763" y="-5" as="sourcePoint" />
            <mxPoint x="823" y="-5" as="targetPoint" />
          </mxGeometry>
        </mxCell>
        <mxCell id="BKir_ti3wIF976m73uB4-350" value="" style="endArrow=none;dashed=1;html=1;rounded=0;" edge="1" parent="1">
          <mxGeometry width="50" height="50" relative="1" as="geometry">
            <mxPoint x="853" y="-96" as="sourcePoint" />
            <mxPoint x="918.5" y="-96" as="targetPoint" />
          </mxGeometry>
        </mxCell>
        <mxCell id="BKir_ti3wIF976m73uB4-352" value="" style="endArrow=none;html=1;rounded=0;entryX=0.576;entryY=-0.021;entryDx=0;entryDy=0;entryPerimeter=0;" edge="1" parent="1" target="BKir_ti3wIF976m73uB4-207">
          <mxGeometry width="50" height="50" relative="1" as="geometry">
            <mxPoint x="940" y="1070" as="sourcePoint" />
            <mxPoint x="940" y="1088" as="targetPoint" />
            <Array as="points">
              <mxPoint x="940" y="1060" />
            </Array>
          </mxGeometry>
        </mxCell>
        <mxCell id="BKir_ti3wIF976m73uB4-353" value="" style="endArrow=none;html=1;rounded=0;" edge="1" parent="1">
          <mxGeometry width="50" height="50" relative="1" as="geometry">
            <mxPoint x="940" y="1050" as="sourcePoint" />
            <mxPoint x="940" y="1080" as="targetPoint" />
            <Array as="points">
              <mxPoint x="940" y="1060" />
            </Array>
          </mxGeometry>
        </mxCell>
      </root>
    </mxGraphModel>
  </diagram>
</mxfile>
